<svg xmlns="http://www.w3.org/2000/svg" xmlns:xlink="http://www.w3.org/1999/xlink" width="50" zoomAndPan="magnify" viewBox="0 0 37.5 37.499999" height="50" preserveAspectRatio="xMidYMid meet" version="1.0"><defs><clipPath id="0ed61306cc"><path d="M 0 0.09375 L 37.007812 0.09375 L 37.007812 37.007812 L 0 37.007812 Z M 0 0.09375 " clip-rule="nonzero"/></clipPath></defs><g clip-path="url(#0ed61306cc)"><path fill="#ffffff" d="M 1.847656 37.59375 C 1.421875 37.59375 0.992188 37.429688 0.667969 37.101562 C 0.0117188 36.445312 0.0117188 35.378906 0.667969 34.722656 L 34.472656 0.75 C 35.125 0.09375 36.183594 0.09375 36.835938 0.75 C 37.488281 1.40625 37.488281 2.46875 36.835938 3.125 L 3.03125 37.101562 C 2.703125 37.429688 2.277344 37.59375 1.847656 37.59375 " fill-opacity="1" fill-rule="nonzero"/><path fill="#ffffff" d="M 35.65625 37.59375 C 35.226562 37.59375 34.800781 37.429688 34.472656 37.101562 L 0.667969 3.125 C 0.015625 2.46875 0.015625 1.40625 0.667969 0.75 C 1.320312 0.09375 2.378906 0.09375 3.03125 0.75 L 36.835938 34.722656 C 37.488281 35.378906 37.488281 36.445312 36.835938 37.101562 C 36.511719 37.429688 36.082031 37.59375 35.65625 37.59375 " fill-opacity="1" fill-rule="nonzero"/></g></svg>