<svg xmlns="http://www.w3.org/2000/svg" xmlns:xlink="http://www.w3.org/1999/xlink" width="630" zoomAndPan="magnify" viewBox="0 0 472.5 97.5" height="130" preserveAspectRatio="xMidYMid meet" version="1.0"><defs><g/></defs><g fill="#ffffff" fill-opacity="1"><g transform="translate(38.517821, 66.341253)"><g><path d="M 36.082031 -29.042969 C 36.082031 -35.902344 30.816406 -41.402344 24.308594 -41.402344 L 1.773438 -41.402344 L 1.773438 -41.050781 C 3.726562 -41.050781 5.324219 -39.453125 5.324219 -37.5 L 5.324219 -3.902344 C 5.324219 -1.953125 3.726562 -0.355469 1.773438 -0.355469 L 1.773438 0 L 19.339844 0 L 19.339844 -0.355469 C 17.332031 -0.355469 15.734375 -1.953125 15.734375 -3.902344 L 15.734375 -13.132812 C 21.351562 -14.195312 36.082031 -16.445312 36.082031 -29.042969 Z M 18.277344 -41.050781 C 22.003906 -41.050781 25.019531 -35.667969 25.019531 -29.042969 C 25.019531 -22.121094 22.476562 -16.738281 15.734375 -13.722656 L 15.734375 -41.050781 Z M 18.277344 -41.050781 "/></g></g></g><g fill="#ffffff" fill-opacity="1"><g transform="translate(76.371191, 66.341253)"><g><path d="M 26.378906 -4.4375 L 26.378906 -22.300781 C 26.378906 -25.199219 24.429688 -27.207031 22.179688 -28.332031 C 19.933594 -29.515625 16.976562 -29.929688 13.898438 -29.457031 C 9.699219 -28.863281 3.964844 -25.789062 3.964844 -21.175781 C 3.964844 -18.632812 5.972656 -16.621094 8.515625 -16.621094 C 11.0625 -16.621094 13.132812 -18.632812 13.132812 -21.175781 C 13.132812 -23.894531 10.585938 -24.664062 10.585938 -26.855469 C 10.585938 -28.09375 11.828125 -28.804688 13.960938 -29.101562 C 16.855469 -29.574219 19.695312 -29.160156 22.003906 -28.035156 C 23.894531 -27.089844 25.492188 -25.375 25.492188 -23.777344 C 25.492188 -19.222656 11.652344 -17.210938 6.566406 -14.019531 C 3.3125 -12.007812 1.417969 -8.515625 2.367188 -5.144531 C 3.253906 -1.832031 6.566406 0.296875 10.292969 0.296875 C 13.605469 0.296875 16.03125 -1.183594 17.449219 -2.246094 L 17.449219 -0.769531 C 17.449219 -0.175781 17.921875 0.296875 18.511719 0.296875 C 18.574219 0.296875 18.632812 0.296875 18.632812 0.296875 L 28.804688 -1.183594 L 28.804688 -1.539062 C 27.445312 -1.773438 26.378906 -3.015625 26.378906 -4.4375 Z M 17.449219 -2.660156 C 16.148438 -1.714844 14.136719 -2.070312 12.835938 -3.488281 C 11.59375 -4.851562 10.882812 -7.039062 11.0625 -9.878906 C 11.414062 -14.847656 15.023438 -16.738281 17.449219 -17.863281 Z M 17.449219 -2.660156 "/></g></g></g><g fill="#ffffff" fill-opacity="1"><g transform="translate(106.653887, 66.341253)"><g><path d="M 15.96875 -2.128906 C 14.195312 -2.128906 12.777344 -3.550781 12.777344 -5.324219 L 12.777344 -28.6875 L 16.621094 -28.6875 L 16.621094 -29.042969 L 12.777344 -29.042969 L 12.777344 -34.367188 L 12.421875 -34.367188 C 9.878906 -31.113281 5.914062 -29.042969 1.480469 -29.042969 L 1.480469 -28.6875 L 3.902344 -28.6875 L 3.902344 -6.328125 C 3.902344 -2.660156 6.859375 0.296875 10.527344 0.296875 C 13.839844 0.296875 16.324219 -1.183594 17.746094 -2.246094 L 17.746094 -2.660156 C 17.210938 -2.308594 16.621094 -2.128906 15.96875 -2.128906 Z M 15.96875 -2.128906 "/></g></g></g><g fill="#ffffff" fill-opacity="1"><g transform="translate(125.284842, 66.341253)"><g><path d="M 20.347656 -30.226562 C 18.039062 -30.34375 14.90625 -28.863281 12.777344 -27.742188 L 12.777344 -28.035156 C 12.777344 -28.570312 12.363281 -29.042969 11.769531 -29.042969 C 11.710938 -29.042969 11.652344 -29.042969 11.59375 -29.042969 L 1.480469 -27.5625 L 1.480469 -27.207031 C 2.839844 -26.972656 3.902344 -25.789062 3.902344 -24.308594 L 3.902344 -3.253906 C 3.902344 -1.832031 2.839844 -0.589844 1.480469 -0.355469 L 1.480469 0 L 15.203125 0 L 15.203125 -0.355469 C 13.839844 -0.589844 12.777344 -1.832031 12.777344 -3.253906 L 12.777344 -27.386719 C 13.722656 -27.859375 14.492188 -28.09375 15.023438 -28.09375 C 15.617188 -28.09375 15.96875 -27.800781 15.96875 -27.207031 C 15.96875 -26.734375 15.792969 -26.441406 15.792969 -25.671875 C 15.792969 -23.128906 17.863281 -21.058594 20.347656 -21.058594 C 22.890625 -21.058594 24.960938 -23.128906 24.960938 -25.671875 C 24.960938 -28.15625 22.890625 -30.105469 20.347656 -30.226562 Z M 20.347656 -30.226562 "/></g></g></g><g fill="#ffffff" fill-opacity="1"><g transform="translate(151.723061, 66.341253)"><g><path d="M 3.902344 -3.253906 C 3.902344 -1.832031 2.839844 -0.589844 1.480469 -0.355469 L 1.480469 0 L 15.203125 0 L 15.203125 -0.355469 C 13.839844 -0.589844 12.777344 -1.832031 12.777344 -3.253906 L 12.777344 -28.035156 C 12.777344 -28.628906 12.363281 -29.042969 11.769531 -29.042969 C 11.710938 -29.042969 11.652344 -29.042969 11.59375 -29.042969 L 1.480469 -27.5625 L 1.480469 -27.207031 C 2.839844 -26.972656 3.902344 -25.789062 3.902344 -24.308594 Z M 12.953125 -36.789062 C 12.953125 -39.332031 10.882812 -41.402344 8.339844 -41.402344 C 5.796875 -41.402344 3.785156 -39.332031 3.785156 -36.789062 C 3.785156 -34.304688 5.796875 -32.234375 8.339844 -32.234375 C 10.882812 -32.234375 12.953125 -34.304688 12.953125 -36.789062 Z M 12.953125 -36.789062 "/></g></g></g><g fill="#ffffff" fill-opacity="1"><g transform="translate(168.4022, 66.341253)"><g><path d="M 15.554688 -29.277344 C 16.976562 -29.277344 20.347656 -29.042969 20.347656 -26.972656 C 20.347656 -24.902344 17.804688 -24.371094 17.804688 -21.292969 C 17.804688 -18.75 19.875 -16.738281 22.359375 -16.738281 C 24.902344 -16.738281 26.972656 -18.75 26.972656 -21.292969 C 26.972656 -25.019531 21.589844 -29.632812 15.554688 -29.632812 C 8.101562 -29.632812 2.070312 -22.949219 2.070312 -14.667969 C 2.070312 -6.386719 8.101562 0.296875 15.554688 0.296875 C 20.347656 0.296875 24.605469 -2.484375 26.972656 -6.742188 L 26.675781 -6.921875 C 25.019531 -4.96875 22.890625 -3.785156 20.582031 -3.785156 C 15.261719 -3.785156 10.941406 -10.113281 10.941406 -17.921875 C 10.941406 -24.191406 14.019531 -29.277344 15.554688 -29.277344 Z M 15.554688 -29.277344 "/></g></g></g><g fill="#ffffff" fill-opacity="1"><g transform="translate(196.851375, 66.341253)"><g><path d="M 3.902344 -3.253906 C 3.902344 -1.832031 2.839844 -0.589844 1.480469 -0.355469 L 1.480469 0 L 15.203125 0 L 15.203125 -0.355469 C 13.839844 -0.589844 12.777344 -1.832031 12.777344 -3.253906 L 12.777344 -28.035156 C 12.777344 -28.628906 12.363281 -29.042969 11.769531 -29.042969 C 11.710938 -29.042969 11.652344 -29.042969 11.59375 -29.042969 L 1.480469 -27.5625 L 1.480469 -27.207031 C 2.839844 -26.972656 3.902344 -25.789062 3.902344 -24.308594 Z M 12.953125 -36.789062 C 12.953125 -39.332031 10.882812 -41.402344 8.339844 -41.402344 C 5.796875 -41.402344 3.785156 -39.332031 3.785156 -36.789062 C 3.785156 -34.304688 5.796875 -32.234375 8.339844 -32.234375 C 10.882812 -32.234375 12.953125 -34.304688 12.953125 -36.789062 Z M 12.953125 -36.789062 "/></g></g></g><g fill="#ffffff" fill-opacity="1"><g transform="translate(213.530514, 66.341253)"><g><path d="M 26.378906 -4.4375 L 26.378906 -22.300781 C 26.378906 -25.199219 24.429688 -27.207031 22.179688 -28.332031 C 19.933594 -29.515625 16.976562 -29.929688 13.898438 -29.457031 C 9.699219 -28.863281 3.964844 -25.789062 3.964844 -21.175781 C 3.964844 -18.632812 5.972656 -16.621094 8.515625 -16.621094 C 11.0625 -16.621094 13.132812 -18.632812 13.132812 -21.175781 C 13.132812 -23.894531 10.585938 -24.664062 10.585938 -26.855469 C 10.585938 -28.09375 11.828125 -28.804688 13.960938 -29.101562 C 16.855469 -29.574219 19.695312 -29.160156 22.003906 -28.035156 C 23.894531 -27.089844 25.492188 -25.375 25.492188 -23.777344 C 25.492188 -19.222656 11.652344 -17.210938 6.566406 -14.019531 C 3.3125 -12.007812 1.417969 -8.515625 2.367188 -5.144531 C 3.253906 -1.832031 6.566406 0.296875 10.292969 0.296875 C 13.605469 0.296875 16.03125 -1.183594 17.449219 -2.246094 L 17.449219 -0.769531 C 17.449219 -0.175781 17.921875 0.296875 18.511719 0.296875 C 18.574219 0.296875 18.632812 0.296875 18.632812 0.296875 L 28.804688 -1.183594 L 28.804688 -1.539062 C 27.445312 -1.773438 26.378906 -3.015625 26.378906 -4.4375 Z M 17.449219 -2.660156 C 16.148438 -1.714844 14.136719 -2.070312 12.835938 -3.488281 C 11.59375 -4.851562 10.882812 -7.039062 11.0625 -9.878906 C 11.414062 -14.847656 15.023438 -16.738281 17.449219 -17.863281 Z M 17.449219 -2.660156 "/></g></g></g><g fill="#ffffff" fill-opacity="1"><g transform="translate(243.81321, 66.341253)"><g/></g></g><g fill="#ffffff" fill-opacity="1"><g transform="translate(260.374054, 66.341253)"><g><path d="M 49.390625 -41.050781 L 49.390625 -41.402344 L 36.199219 -41.402344 L 27.5625 -16.445312 L 18.867188 -41.402344 L 5.027344 -41.402344 L 5.027344 -41.050781 L 5.207031 -41.050781 C 7.15625 -41.050781 8.753906 -39.453125 8.753906 -37.5 L 8.753906 -7.453125 C 8.753906 -3.609375 5.617188 -0.355469 1.773438 -0.355469 L 1.773438 0 L 16.03125 0 L 16.03125 -0.355469 C 12.183594 -0.355469 9.109375 -3.609375 9.109375 -7.453125 L 9.109375 -37.796875 L 22.179688 0 L 35.371094 -37.972656 C 35.429688 -38.03125 35.371094 -37.972656 35.429688 -38.03125 L 35.429688 -3.902344 C 35.429688 -1.953125 33.832031 -0.355469 31.820312 -0.355469 L 31.820312 0 L 49.390625 0 L 49.390625 -0.355469 C 47.4375 -0.355469 45.839844 -1.953125 45.839844 -3.902344 L 45.839844 -37.5 C 45.839844 -39.453125 47.4375 -41.050781 49.390625 -41.050781 Z M 49.390625 -41.050781 "/></g></g></g><g fill="#ffffff" fill-opacity="1"><g transform="translate(311.535266, 66.341253)"><g><path d="M 28.332031 -4.4375 L 28.332031 -28.035156 C 28.332031 -28.628906 27.917969 -29.042969 27.328125 -29.042969 L 27.148438 -29.042969 L 17.035156 -27.5625 L 17.035156 -27.207031 C 18.394531 -26.972656 19.460938 -25.789062 19.460938 -24.308594 L 19.460938 -1.953125 C 19.105469 -1.773438 16.679688 -0.589844 13.722656 -0.589844 C 11.414062 -0.589844 9.699219 -1.417969 9.699219 -2.660156 C 9.699219 -4.851562 12.777344 -5.617188 12.777344 -8.636719 L 12.777344 -28.035156 C 12.777344 -28.628906 12.363281 -29.042969 11.769531 -29.042969 L 11.59375 -29.042969 L 1.480469 -27.5625 L 1.480469 -27.207031 C 2.839844 -26.972656 3.902344 -25.789062 3.902344 -24.308594 L 3.902344 -7.808594 C 3.902344 2.1875 14.019531 1.183594 19.460938 -1.597656 L 19.460938 -0.710938 C 19.460938 -0.175781 19.933594 0.296875 20.464844 0.296875 L 20.644531 0.296875 L 30.757812 -1.183594 L 30.757812 -1.539062 C 29.398438 -1.773438 28.332031 -3.015625 28.332031 -4.4375 Z M 28.332031 -4.4375 "/></g></g></g><g fill="#ffffff" fill-opacity="1"><g transform="translate(343.769763, 66.341253)"><g><path d="M 28.332031 -3.253906 L 28.332031 -21.53125 C 28.332031 -31.527344 18.21875 -30.519531 12.777344 -27.800781 L 12.777344 -28.035156 C 12.777344 -28.628906 12.363281 -29.042969 11.769531 -29.042969 C 11.710938 -29.042969 11.652344 -29.042969 11.59375 -29.042969 L 1.480469 -27.5625 L 1.480469 -27.207031 C 2.839844 -26.972656 3.902344 -25.789062 3.902344 -24.308594 L 3.902344 -3.253906 C 3.902344 -1.832031 2.839844 -0.589844 1.480469 -0.355469 L 1.480469 0 L 15.203125 0 L 15.203125 -0.355469 C 13.839844 -0.589844 12.777344 -1.832031 12.777344 -3.253906 L 12.777344 -27.386719 C 13.722656 -27.859375 15.910156 -28.746094 18.511719 -28.746094 C 20.878906 -28.746094 22.535156 -27.976562 22.535156 -26.675781 C 22.535156 -24.488281 19.460938 -23.71875 19.460938 -20.703125 L 19.460938 -3.253906 C 19.460938 -1.832031 18.394531 -0.589844 17.035156 -0.355469 L 17.035156 0 L 30.757812 0 L 30.757812 -0.355469 C 29.398438 -0.589844 28.332031 -1.832031 28.332031 -3.253906 Z M 19.402344 -36.851562 C 17.449219 -36.851562 15.140625 -39.746094 12.71875 -39.746094 C 10.941406 -39.746094 9.464844 -38.386719 9.285156 -36.613281 L 11.0625 -36.257812 C 11.0625 -37.203125 11.828125 -37.972656 12.71875 -37.972656 C 14.550781 -37.972656 16.738281 -35.074219 19.402344 -35.074219 C 21.234375 -35.074219 22.714844 -36.4375 22.890625 -38.210938 L 21.117188 -38.566406 C 21.117188 -37.617188 20.347656 -36.851562 19.402344 -36.851562 Z M 19.402344 -36.851562 "/></g></g></g><g fill="#ffffff" fill-opacity="1"><g transform="translate(376.004259, 66.341253)"><g><path d="M 15.554688 -29.632812 C 8.101562 -29.632812 2.070312 -22.949219 2.070312 -14.667969 C 2.070312 -6.386719 8.101562 0.296875 15.554688 0.296875 C 23.007812 0.296875 29.042969 -6.386719 29.042969 -14.667969 C 29.042969 -22.949219 23.007812 -29.632812 15.554688 -29.632812 Z M 15.554688 -0.0585938 C 12.597656 -0.0585938 10.941406 -4.96875 10.941406 -14.667969 C 10.941406 -24.429688 12.597656 -29.277344 15.554688 -29.277344 C 18.511719 -29.277344 20.109375 -24.429688 20.109375 -14.667969 C 20.109375 -4.96875 18.511719 -0.0585938 15.554688 -0.0585938 Z M 15.554688 -0.0585938 "/></g></g></g><g fill="#ffffff" fill-opacity="1"><g transform="translate(407.114976, 66.341253)"><g><path d="M 1.894531 0 C 2.484375 -1.066406 3.488281 -1.480469 4.671875 -1.480469 C 9.050781 -1.480469 15.96875 3.785156 20.289062 1.183594 C 24.074219 -1.65625 24.664062 -6.683594 24.664062 -6.683594 L 24.308594 -6.742188 C 22.300781 -1.894531 9.109375 -12.183594 4.316406 -7.097656 C 6.683594 -10.234375 10.234375 -13.132812 13.308594 -15.378906 C 16.089844 -17.390625 18.632812 -18.988281 20.644531 -20.582031 C 23.480469 -22.832031 25.316406 -25.136719 25.375 -28.804688 L 25.078125 -29.042969 L 5.796875 -29.042969 C 4.792969 -29.042969 4.023438 -28.332031 4.023438 -27.445312 L 4.023438 -19.105469 L 4.378906 -19.105469 C 5.027344 -20.109375 5.914062 -20.820312 8.101562 -20.820312 L 20.40625 -20.820312 C 18.394531 -19.222656 15.851562 -17.683594 13.070312 -15.617188 C 7.808594 -11.769531 0.886719 -5.972656 1.539062 0 Z M 1.894531 0 "/></g></g></g></svg>