<svg xmlns="http://www.w3.org/2000/svg" xmlns:xlink="http://www.w3.org/1999/xlink" width="500" zoomAndPan="magnify" viewBox="0 0 375 374.999991" height="500" preserveAspectRatio="xMidYMid meet" version="1.0"><defs><clipPath id="9208984ba1"><path d="M 210 138 L 247 138 L 247 263 L 210 263 Z M 210 138 " clip-rule="nonzero"/></clipPath><clipPath id="26d0cde990"><path d="M 118.722656 42.089844 L 243.136719 37.496094 L 251.636719 267.589844 L 127.222656 272.183594 Z M 118.722656 42.089844 " clip-rule="nonzero"/></clipPath><clipPath id="780a333944"><path d="M 118.722656 42.089844 L 243.136719 37.496094 L 251.636719 267.589844 L 127.222656 272.183594 Z M 118.722656 42.089844 " clip-rule="nonzero"/></clipPath><clipPath id="1ce62a4339"><path d="M 188 39 L 247 39 L 247 142 L 188 142 Z M 188 39 " clip-rule="nonzero"/></clipPath><clipPath id="d2fb607db1"><path d="M 118.722656 42.089844 L 243.136719 37.496094 L 251.636719 267.589844 L 127.222656 272.183594 Z M 118.722656 42.089844 " clip-rule="nonzero"/></clipPath><clipPath id="cfea9c3959"><path d="M 118.722656 42.089844 L 243.136719 37.496094 L 251.636719 267.589844 L 127.222656 272.183594 Z M 118.722656 42.089844 " clip-rule="nonzero"/></clipPath><clipPath id="e813429213"><path d="M 156 103 L 213 103 L 213 270 L 156 270 Z M 156 103 " clip-rule="nonzero"/></clipPath><clipPath id="75624e3d1f"><path d="M 118.722656 42.089844 L 243.136719 37.496094 L 251.636719 267.589844 L 127.222656 272.183594 Z M 118.722656 42.089844 " clip-rule="nonzero"/></clipPath><clipPath id="a1ef522923"><path d="M 118.722656 42.089844 L 243.136719 37.496094 L 251.636719 267.589844 L 127.222656 272.183594 Z M 118.722656 42.089844 " clip-rule="nonzero"/></clipPath><clipPath id="e92878b03d"><path d="M 123 40 L 190 40 L 190 148 L 123 148 Z M 123 40 " clip-rule="nonzero"/></clipPath><clipPath id="5d329969b8"><path d="M 118.722656 42.089844 L 243.136719 37.496094 L 251.636719 267.589844 L 127.222656 272.183594 Z M 118.722656 42.089844 " clip-rule="nonzero"/></clipPath><clipPath id="317a8a336e"><path d="M 118.722656 42.089844 L 243.136719 37.496094 L 251.636719 267.589844 L 127.222656 272.183594 Z M 118.722656 42.089844 " clip-rule="nonzero"/></clipPath><clipPath id="ae98245958"><path d="M 122 134 L 175 134 L 175 266 L 122 266 Z M 122 134 " clip-rule="nonzero"/></clipPath><clipPath id="f2d5619f6d"><path d="M 118.722656 42.089844 L 243.136719 37.496094 L 251.636719 267.589844 L 127.222656 272.183594 Z M 118.722656 42.089844 " clip-rule="nonzero"/></clipPath><clipPath id="5e1d531a18"><path d="M 118.722656 42.089844 L 243.136719 37.496094 L 251.636719 267.589844 L 127.222656 272.183594 Z M 118.722656 42.089844 " clip-rule="nonzero"/></clipPath><clipPath id="be5bdaed03"><path d="M 242 169 L 342 169 L 342 321 L 242 321 Z M 242 169 " clip-rule="nonzero"/></clipPath><clipPath id="c6586ece79"><path d="M 299.921875 153.667969 L 362.808594 188.734375 L 279.527344 338.082031 L 216.644531 303.019531 Z M 299.921875 153.667969 " clip-rule="nonzero"/></clipPath><clipPath id="a324bce9f4"><path d="M 299.921875 153.667969 L 362.808594 188.734375 L 279.527344 338.082031 L 216.644531 303.019531 Z M 299.921875 153.667969 " clip-rule="nonzero"/></clipPath><clipPath id="9272d92ca9"><path d="M 41 222 L 110 222 L 110 329 L 41 329 Z M 41 222 " clip-rule="nonzero"/></clipPath><clipPath id="83a1d5fed5"><path d="M 25.042969 201.667969 L 89.65625 169.902344 L 156.496094 305.863281 L 91.878906 337.628906 Z M 25.042969 201.667969 " clip-rule="nonzero"/></clipPath><clipPath id="482d7019e0"><path d="M 89.550781 169.953125 L 24.9375 201.71875 L 91.777344 337.679688 L 156.390625 305.914062 Z M 89.550781 169.953125 " clip-rule="nonzero"/></clipPath><clipPath id="30a1b34b7b"><path d="M 41 192 L 53 192 L 53 230 L 41 230 Z M 41 192 " clip-rule="nonzero"/></clipPath><clipPath id="f6a327386b"><path d="M 25.042969 201.667969 L 89.65625 169.902344 L 156.496094 305.863281 L 91.878906 337.628906 Z M 25.042969 201.667969 " clip-rule="nonzero"/></clipPath><clipPath id="05972b1fa1"><path d="M 89.550781 169.953125 L 24.9375 201.71875 L 91.777344 337.679688 L 156.390625 305.914062 Z M 89.550781 169.953125 " clip-rule="nonzero"/></clipPath><clipPath id="c20f2f0e3e"><path d="M 52 187 L 102 187 L 102 233 L 52 233 Z M 52 187 " clip-rule="nonzero"/></clipPath><clipPath id="d8a8b99e38"><path d="M 25.042969 201.667969 L 89.65625 169.902344 L 156.496094 305.863281 L 91.878906 337.628906 Z M 25.042969 201.667969 " clip-rule="nonzero"/></clipPath><clipPath id="f0f7ccd3fc"><path d="M 89.550781 169.953125 L 24.9375 201.71875 L 91.777344 337.679688 L 156.390625 305.914062 Z M 89.550781 169.953125 " clip-rule="nonzero"/></clipPath><clipPath id="2acc759979"><path d="M 78 224 L 111 224 L 111 323 L 78 323 Z M 78 224 " clip-rule="nonzero"/></clipPath><clipPath id="836bb4d427"><path d="M 25.042969 201.667969 L 89.65625 169.902344 L 156.496094 305.863281 L 91.878906 337.628906 Z M 25.042969 201.667969 " clip-rule="nonzero"/></clipPath><clipPath id="a333af3731"><path d="M 89.550781 169.953125 L 24.9375 201.71875 L 91.777344 337.679688 L 156.390625 305.914062 Z M 89.550781 169.953125 " clip-rule="nonzero"/></clipPath><clipPath id="960abd1438"><path d="M 103 216 L 136 216 L 136 328 L 103 328 Z M 103 216 " clip-rule="nonzero"/></clipPath><clipPath id="5a627113b3"><path d="M 25.042969 201.667969 L 89.65625 169.902344 L 156.496094 305.863281 L 91.878906 337.628906 Z M 25.042969 201.667969 " clip-rule="nonzero"/></clipPath><clipPath id="991bcc0e3b"><path d="M 89.550781 169.953125 L 24.9375 201.71875 L 91.777344 337.679688 L 156.390625 305.914062 Z M 89.550781 169.953125 " clip-rule="nonzero"/></clipPath><clipPath id="e4d264d078"><path d="M 92 200 L 111 200 L 111 221 L 92 221 Z M 92 200 " clip-rule="nonzero"/></clipPath><clipPath id="24d270936a"><path d="M 25.042969 201.667969 L 89.65625 169.902344 L 156.496094 305.863281 L 91.878906 337.628906 Z M 25.042969 201.667969 " clip-rule="nonzero"/></clipPath><clipPath id="f2da374152"><path d="M 89.550781 169.953125 L 24.9375 201.71875 L 91.777344 337.679688 L 156.390625 305.914062 Z M 89.550781 169.953125 " clip-rule="nonzero"/></clipPath><clipPath id="0afcc38312"><path d="M 90.65625 160.125 L 128.90625 160.125 L 128.90625 196.875 L 90.65625 196.875 Z M 90.65625 160.125 " clip-rule="nonzero"/></clipPath><clipPath id="e93b919643"><path d="M 60 143 L 82 143 L 82 165 L 60 165 Z M 60 143 " clip-rule="nonzero"/></clipPath><clipPath id="5db1a22c1f"><path d="M 54.410156 148.78125 L 75.539062 137.398438 L 86.921875 158.53125 L 65.789062 169.910156 Z M 54.410156 148.78125 " clip-rule="nonzero"/></clipPath><clipPath id="29eba5e0d6"><path d="M 54.410156 148.78125 L 75.539062 137.398438 L 86.921875 158.53125 L 65.789062 169.910156 Z M 54.410156 148.78125 " clip-rule="nonzero"/></clipPath><clipPath id="62781e1a85"><path d="M 265 117 L 295 117 L 295 147 L 265 147 Z M 265 117 " clip-rule="nonzero"/></clipPath><clipPath id="d5f11c2e96"><path d="M 272.308594 114.117188 L 297.652344 125.421875 L 285.433594 152.820312 L 260.089844 141.515625 Z M 272.308594 114.117188 " clip-rule="nonzero"/></clipPath><clipPath id="3a462b08d3"><path d="M 276.09375 101.375 L 314.453125 118.484375 L 297.039062 157.527344 L 258.679688 140.417969 Z M 276.09375 101.375 " clip-rule="nonzero"/></clipPath><clipPath id="c7384e0c1a"><path d="M 292 114 L 298 114 L 298 133 L 292 133 Z M 292 114 " clip-rule="nonzero"/></clipPath><clipPath id="e1af175d4a"><path d="M 272.308594 114.117188 L 297.652344 125.421875 L 285.433594 152.820312 L 260.089844 141.515625 Z M 272.308594 114.117188 " clip-rule="nonzero"/></clipPath><clipPath id="043a171e78"><path d="M 276.09375 101.375 L 314.453125 118.484375 L 297.039062 157.527344 L 258.679688 140.417969 Z M 276.09375 101.375 " clip-rule="nonzero"/></clipPath><clipPath id="cc5fd9aa98"><path d="M 90.65625 129.441406 L 99.617188 129.441406 L 99.617188 138.402344 L 90.65625 138.402344 Z M 90.65625 129.441406 " clip-rule="nonzero"/></clipPath><clipPath id="c7b839687a"><path d="M 95.136719 129.441406 C 92.664062 129.441406 90.65625 131.445312 90.65625 133.921875 C 90.65625 136.394531 92.664062 138.398438 95.136719 138.398438 C 97.613281 138.398438 99.617188 136.394531 99.617188 133.921875 C 99.617188 131.445312 97.613281 129.441406 95.136719 129.441406 " clip-rule="nonzero"/></clipPath><clipPath id="683b56997d"><path d="M 125.621094 212.644531 L 132.539062 212.644531 L 132.539062 219.5625 L 125.621094 219.5625 Z M 125.621094 212.644531 " clip-rule="nonzero"/></clipPath><clipPath id="2ce106ee70"><path d="M 129.078125 212.644531 C 127.167969 212.644531 125.621094 214.195312 125.621094 216.105469 C 125.621094 218.015625 127.167969 219.5625 129.078125 219.5625 C 130.988281 219.5625 132.539062 218.015625 132.539062 216.105469 C 132.539062 214.195312 130.988281 212.644531 129.078125 212.644531 " clip-rule="nonzero"/></clipPath><clipPath id="ef449bb28a"><path d="M 297.347656 142.171875 L 306.308594 142.171875 L 306.308594 151.132812 L 297.347656 151.132812 Z M 297.347656 142.171875 " clip-rule="nonzero"/></clipPath><clipPath id="937ef4ac1e"><path d="M 301.828125 142.171875 C 299.351562 142.171875 297.347656 144.175781 297.347656 146.652344 C 297.347656 149.125 299.351562 151.132812 301.828125 151.132812 C 304.300781 151.132812 306.308594 149.125 306.308594 146.652344 C 306.308594 144.175781 304.300781 142.171875 301.828125 142.171875 " clip-rule="nonzero"/></clipPath><clipPath id="ec3affa501"><path d="M 152.007812 281.140625 L 160.96875 281.140625 L 160.96875 290.101562 L 152.007812 290.101562 Z M 152.007812 281.140625 " clip-rule="nonzero"/></clipPath><clipPath id="2ca82d9a09"><path d="M 156.488281 281.140625 C 154.015625 281.140625 152.007812 283.148438 152.007812 285.621094 C 152.007812 288.097656 154.015625 290.101562 156.488281 290.101562 C 158.964844 290.101562 160.96875 288.097656 160.96875 285.621094 C 160.96875 283.148438 158.964844 281.140625 156.488281 281.140625 " clip-rule="nonzero"/></clipPath><clipPath id="336c6c3c2f"><path d="M 156 304 L 181 304 L 181 329 L 156 329 Z M 156 304 " clip-rule="nonzero"/></clipPath><clipPath id="962a10717f"><path d="M 152.007812 309.128906 L 175.878906 300.164062 L 184.847656 324.035156 L 160.976562 333 Z M 152.007812 309.128906 " clip-rule="nonzero"/></clipPath><clipPath id="7cf645f94a"><path d="M 152.007812 309.128906 L 175.878906 300.164062 L 184.847656 324.035156 L 160.976562 333 Z M 152.007812 309.128906 " clip-rule="nonzero"/></clipPath><clipPath id="ae0b587524"><path d="M 208 289 L 232 289 L 232 314 L 208 314 Z M 208 289 " clip-rule="nonzero"/></clipPath><clipPath id="7f00c92890"><path d="M 212.25 285.71875 L 235.601562 293.921875 L 227.394531 317.273438 L 204.046875 309.070312 Z M 212.25 285.71875 " clip-rule="nonzero"/></clipPath><clipPath id="21a7b709f8"><path d="M 212.25 285.71875 L 235.601562 293.921875 L 227.394531 317.273438 L 204.046875 309.070312 Z M 212.25 285.71875 " clip-rule="nonzero"/></clipPath><clipPath id="846e684987"><path d="M 294 117 L 315 117 L 315 138 L 294 138 Z M 294 117 " clip-rule="nonzero"/></clipPath><clipPath id="0f7867a77c"><path d="M 299.964844 114.121094 L 316.945312 123.707031 L 306.621094 141.996094 L 289.640625 132.40625 Z M 299.964844 114.121094 " clip-rule="nonzero"/></clipPath><clipPath id="f37725ac2d"><path d="M 303.503906 105.347656 L 329.625 120.097656 L 314.507812 146.875 L 288.382812 132.121094 Z M 303.503906 105.347656 " clip-rule="nonzero"/></clipPath><clipPath id="34086e84ea"><path d="M 313 116 L 317 116 L 317 129 L 313 129 Z M 313 116 " clip-rule="nonzero"/></clipPath><clipPath id="0ef8211769"><path d="M 299.964844 114.121094 L 316.945312 123.707031 L 306.621094 141.996094 L 289.640625 132.40625 Z M 299.964844 114.121094 " clip-rule="nonzero"/></clipPath><clipPath id="768ef1b87d"><path d="M 303.503906 105.347656 L 329.625 120.097656 L 314.507812 146.875 L 288.382812 132.121094 Z M 303.503906 105.347656 " clip-rule="nonzero"/></clipPath><clipPath id="96d48339b4"><path d="M 259 155 L 290 155 L 290 182 L 259 182 Z M 259 155 " clip-rule="nonzero"/></clipPath><clipPath id="466c6412ac"><path d="M 259.015625 181.042969 L 259.59375 154.796875 L 289.585938 155.460938 L 289.007812 181.703125 Z M 259.015625 181.042969 " clip-rule="nonzero"/></clipPath><clipPath id="74987bbded"><path d="M 259.015625 181.042969 L 259.59375 154.796875 L 289.585938 155.460938 L 289.007812 181.703125 Z M 259.015625 181.042969 " clip-rule="nonzero"/></clipPath><clipPath id="3ea7886fad"><path d="M 259.015625 181.042969 L 259.59375 154.796875 L 289.585938 155.460938 L 289.007812 181.703125 Z M 259.015625 181.042969 " clip-rule="nonzero"/></clipPath></defs><g clip-path="url(#9208984ba1)"><g clip-path="url(#26d0cde990)"><g clip-path="url(#780a333944)"><path fill="#ffffff" d="M 246.042969 138.664062 C 246.347656 138.65625 246.902344 139.21875 246.851562 139.515625 C 246.488281 141.761719 246.164062 144.015625 245.742188 146.253906 C 245.21875 149.046875 244.476562 151.800781 244.226562 154.644531 C 244.152344 155.488281 243.851562 156.3125 243.660156 157.140625 C 242.46875 162.269531 241.214844 167.386719 240.117188 172.539062 C 239.527344 175.316406 239.164062 178.140625 238.460938 180.898438 C 237.339844 185.308594 236.582031 189.808594 235.164062 194.144531 C 234.859375 195.101562 234.632812 196.074219 234.488281 197.0625 C 234.148438 199.464844 233.585938 201.8125 232.804688 204.105469 C 232.523438 204.898438 232.496094 205.78125 232.34375 206.617188 C 231.882812 209.128906 231.511719 211.644531 230.851562 214.132812 C 230.167969 216.730469 229.683594 219.40625 229.078125 222.035156 C 228.347656 225.214844 227.855469 228.445312 226.804688 231.5625 C 226.269531 233.160156 226.265625 234.929688 225.808594 236.5625 C 225.351562 238.195312 224.683594 239.800781 224.484375 241.503906 C 224.105469 244.773438 223.175781 247.902344 222.277344 251.046875 C 221.863281 252.582031 221.136719 253.953125 220.09375 255.15625 C 218.859375 256.539062 217.621094 257.910156 216.308594 259.210938 C 215.304688 260.214844 214.207031 261.121094 213.117188 262.035156 C 212.445312 262.601562 211.925781 262.667969 211.613281 262.414062 C 211.117188 262.011719 211 261.441406 210.984375 260.890625 C 210.921875 258.902344 210.933594 256.914062 210.902344 254.925781 C 210.800781 248.660156 211.273438 242.417969 211.414062 236.164062 C 211.460938 234.171875 211.519531 232.183594 211.535156 230.191406 C 211.566406 225.925781 211.675781 221.660156 211.972656 217.398438 C 212.0625 216.128906 211.984375 214.84375 211.992188 213.566406 C 211.984375 210.019531 211.835938 206.464844 212.355469 202.929688 C 212.496094 201.960938 212.417969 200.945312 212.449219 199.953125 C 212.554688 196.398438 212.828125 192.84375 212.738281 189.296875 C 212.648438 185.753906 212.957031 182.199219 213.128906 178.652344 C 213.421875 172.402344 214.238281 166.175781 214.132812 159.90625 C 214.117188 159.480469 214.183594 159.054688 214.214844 158.628906 C 214.523438 154.519531 215.21875 150.445312 215.246094 146.3125 C 215.253906 146.171875 215.277344 146.03125 215.320312 145.890625 C 215.378906 145.605469 215.503906 145.355469 215.703125 145.140625 C 215.898438 144.925781 216.136719 144.777344 216.417969 144.695312 C 218.625 144.121094 220.847656 143.617188 221.984375 143.34375 C 225.746094 142.691406 228.414062 142.230469 231.078125 141.769531 C 231.359375 141.722656 231.683594 141.746094 231.90625 141.601562 C 234.09375 140.277344 236.613281 140.625 238.960938 140.148438 C 241.199219 139.6875 243.40625 139.148438 245.628906 138.648438 C 245.769531 138.640625 245.90625 138.648438 246.042969 138.664062 Z M 246.042969 138.664062 " fill-opacity="1" fill-rule="nonzero"/></g></g></g><g clip-path="url(#1ce62a4339)"><g clip-path="url(#d2fb607db1)"><g clip-path="url(#cfea9c3959)"><path fill="#ffffff" d="M 246.621094 134.699219 C 246.6875 134.988281 246.335938 135.691406 246.082031 135.789062 C 245.554688 135.996094 245.035156 136.25 244.496094 136.382812 C 241.453125 137.140625 238.40625 137.851562 235.359375 138.578125 C 235.359375 138.558594 235.359375 138.539062 235.347656 138.519531 C 234.515625 138.710938 233.675781 138.890625 232.855469 139.121094 C 228.453125 140.359375 223.953125 141.019531 219.414062 141.460938 C 218.992188 141.523438 218.566406 141.546875 218.140625 141.53125 C 214.351562 141.203125 214.695312 141.722656 212.75 138.375 C 211.957031 137.027344 211.226562 135.65625 210.375 134.34375 C 209.679688 133.28125 209.25 132.054688 208.65625 130.925781 C 206.867188 127.53125 205.0625 124.144531 203.246094 120.765625 C 200.746094 116.140625 198.109375 111.59375 195.867188 106.832031 C 195.085938 105.167969 194.027344 103.625 192.992188 102.09375 C 191.835938 100.402344 191.261719 98.53125 191.265625 96.480469 C 191.242188 95.203125 191.152344 93.929688 190.992188 92.664062 C 190.199219 85.882812 189.679688 79.089844 189.863281 72.253906 C 189.886719 71.257812 189.832031 70.269531 189.699219 69.28125 C 189.425781 67.167969 189.425781 65.035156 189.105469 62.917969 C 188.808594 60.96875 188.882812 58.964844 188.691406 56.980469 C 188.476562 54.726562 188.640625 52.4375 188.589844 50.167969 C 188.519531 47.042969 188.386719 43.921875 188.328125 40.800781 C 188.316406 40.433594 188.625 40.050781 188.828125 39.695312 C 188.925781 39.59375 189.039062 39.558594 189.175781 39.589844 C 189.417969 39.738281 189.621094 39.921875 189.789062 40.148438 C 192.347656 44.085938 195.011719 47.957031 197.394531 51.996094 C 199.710938 55.917969 202.269531 59.675781 204.65625 63.550781 C 206.816406 67.058594 208.875 70.636719 211.027344 74.152344 C 212.585938 76.695312 214.230469 79.175781 215.90625 81.652344 C 217.898438 84.589844 219.847656 87.5625 221.449219 90.75 C 222.46875 92.78125 223.664062 94.722656 224.847656 96.667969 C 226.324219 99.09375 227.835938 101.503906 229.382812 103.890625 C 231.390625 106.992188 233.191406 110.210938 234.996094 113.433594 C 237.847656 118.515625 240.785156 123.550781 243.667969 128.617188 C 244.585938 130.222656 245.472656 131.84375 246.320312 133.480469 C 246.503906 133.839844 246.523438 134.292969 246.621094 134.699219 Z M 246.621094 134.699219 " fill-opacity="1" fill-rule="nonzero"/></g></g></g><g clip-path="url(#e813429213)"><g clip-path="url(#75624e3d1f)"><g clip-path="url(#a1ef522923)"><path fill="#ffffff" d="M 212.851562 144.058594 C 212.792969 145.617188 212.761719 147.175781 212.671875 148.734375 C 212.425781 152.847656 212.050781 156.953125 211.914062 161.074219 C 211.734375 166.332031 211.136719 171.5625 210.964844 176.820312 C 210.78125 182.355469 210.582031 187.886719 210.53125 193.425781 C 210.507812 197.113281 210.363281 200.804688 209.976562 204.488281 C 209.664062 207.445312 209.78125 210.441406 209.707031 213.433594 C 209.625 216.699219 209.550781 219.964844 209.457031 223.230469 C 209.394531 225.359375 209.238281 227.488281 209.242188 229.617188 C 209.253906 235.019531 208.847656 240.410156 208.851562 245.808594 C 208.855469 246.234375 208.773438 246.664062 208.804688 247.085938 C 209.171875 252.203125 208.554688 257.308594 208.714844 262.421875 C 208.71875 262.566406 208.726562 262.707031 208.71875 262.851562 C 208.566406 266.199219 208.375 266.359375 205.214844 267.195312 C 204.257812 267.449219 203.273438 267.648438 202.300781 267.878906 C 195.089844 269.589844 195.085938 269.613281 187.949219 269.28125 C 185.964844 269.195312 183.988281 268.714844 182.003906 268.699219 C 178.53125 268.664062 178.378906 267.945312 177.648438 265.21875 C 177.023438 262.878906 176.507812 260.515625 176.109375 258.847656 C 175.28125 254.378906 174.1875 250.679688 173.929688 246.824219 C 173.921875 246.390625 173.839844 245.972656 173.679688 245.570312 C 172.726562 243.464844 172.628906 241.167969 172.148438 238.957031 C 170.957031 233.539062 169.753906 228.121094 168.542969 222.699219 C 168.148438 221.042969 167.863281 219.363281 167.699219 217.664062 C 167.535156 215.6875 167.070312 213.734375 166.691406 211.78125 C 166.371094 210.105469 166.019531 208.445312 165.933594 206.722656 C 165.867188 205.3125 165.507812 203.917969 165.304688 202.511719 C 165.054688 200.824219 164.835938 199.132812 164.589844 197.445312 C 164.445312 196.460938 164.304688 195.476562 164.109375 194.503906 C 163.515625 191.574219 162.859375 188.660156 162.324219 185.71875 C 161.964844 183.769531 161.855469 181.769531 161.488281 179.820312 C 160.773438 175.910156 160.125 171.996094 159.464844 168.074219 C 159.109375 165.972656 158.53125 163.910156 158.058594 161.828125 C 157.359375 158.777344 156.5625 155.746094 156.660156 152.570312 C 156.675781 152.148438 156.691406 151.679688 156.53125 151.308594 C 155.476562 148.90625 156.363281 146.855469 157.703125 144.933594 C 160.226562 141.324219 162.109375 137.289062 165.101562 133.992188 C 165.761719 133.257812 166.273438 132.382812 166.820312 131.550781 C 169.804688 127.03125 173.199219 122.828125 176.660156 118.671875 C 178.390625 116.597656 180.140625 114.527344 181.570312 112.226562 C 181.949219 111.621094 182.367188 111.046875 182.824219 110.5 C 184.363281 108.636719 185.902344 106.773438 187.488281 104.953125 C 188.042969 104.3125 188.722656 103.78125 189.355469 103.214844 C 189.605469 102.988281 190.316406 103.101562 190.527344 103.371094 C 192.433594 105.871094 193.816406 108.679688 195.339844 111.40625 C 196.304688 113.136719 197.117188 114.960938 198.160156 116.644531 C 200.710938 120.765625 202.84375 125.101562 205.101562 129.375 C 206.832031 132.640625 208.769531 135.789062 210.382812 139.113281 C 210.507812 139.371094 210.722656 139.585938 210.839844 139.835938 C 211.511719 141.238281 212.179688 142.648438 212.851562 144.058594 Z M 212.851562 144.058594 " fill-opacity="1" fill-rule="nonzero"/></g></g></g><g clip-path="url(#e92878b03d)"><g clip-path="url(#5d329969b8)"><g clip-path="url(#317a8a336e)"><path fill="#ffffff" d="M 189.269531 97.371094 C 189.320312 97.957031 189.175781 98.488281 188.835938 98.96875 C 186.808594 101.535156 185.152344 104.394531 182.800781 106.710938 C 181.265625 108.226562 180.144531 110.050781 178.957031 111.824219 C 178.164062 113.007812 177.398438 114.191406 176.441406 115.265625 C 172.179688 120.0625 168.472656 125.28125 164.761719 130.503906 C 162.621094 133.515625 160.222656 136.347656 158.414062 139.589844 C 156.738281 141.363281 155.550781 143.484375 154.226562 145.507812 C 153.996094 145.863281 153.714844 146.1875 153.445312 146.519531 C 153.039062 147.015625 152.113281 147.210938 151.488281 146.914062 C 150.976562 146.664062 150.46875 146.40625 149.980469 146.117188 C 148.027344 144.941406 146.105469 143.714844 144.125 142.582031 C 142.394531 141.59375 140.605469 140.71875 138.851562 139.769531 C 137.222656 138.890625 135.597656 138.003906 133.996094 137.078125 C 132.023438 135.9375 130.089844 134.742188 127.972656 133.855469 C 126.667969 133.308594 125.492188 132.476562 124.273438 131.742188 C 123.828125 131.476562 123.574219 130.660156 123.75 130.238281 C 124.976562 127.347656 126.484375 124.613281 128.273438 122.035156 C 128.753906 121.335938 129.300781 120.671875 129.6875 119.921875 C 132.359375 114.722656 135.417969 109.761719 138.867188 105.035156 C 139.707031 103.890625 140.453125 102.667969 141.183594 101.449219 C 144.261719 96.316406 147.566406 91.335938 150.972656 86.417969 C 151.15625 86.199219 151.316406 85.964844 151.457031 85.714844 C 153.253906 81.792969 156.078125 78.550781 158.4375 75.003906 C 159.851562 72.871094 161.359375 70.792969 162.964844 68.800781 C 164.132812 67.351562 165.164062 65.824219 166.21875 64.304688 C 169.550781 59.523438 172.867188 54.722656 176.75 50.355469 C 177.125 49.921875 177.460938 49.464844 177.761719 48.976562 C 179.617188 46.089844 181.988281 43.617188 184.152344 40.976562 C 184.5 40.554688 185.042969 40.351562 185.207031 40.558594 C 185.378906 40.8125 185.539062 41.074219 185.679688 41.34375 C 185.890625 44.945312 186.15625 48.632812 186.304688 52.320312 C 186.5 57.148438 186.589844 61.972656 187.160156 66.785156 C 187.464844 69.183594 187.582031 71.59375 187.507812 74.011719 C 187.375 77.417969 187.65625 80.816406 188 84.21875 C 188.445312 88.609375 188.832031 92.988281 189.269531 97.371094 Z M 189.269531 97.371094 " fill-opacity="1" fill-rule="nonzero"/></g></g></g><g clip-path="url(#ae98245958)"><g clip-path="url(#f2d5619f6d)"><g clip-path="url(#5e1d531a18)"><path fill="#ffffff" d="M 174.773438 263.726562 C 174.84375 264.148438 174.828125 264.5625 174.726562 264.976562 C 174.675781 265.179688 174.347656 265.402344 174.117188 265.445312 C 173.824219 265.484375 173.554688 265.425781 173.304688 265.273438 C 170.382812 263.5 167.386719 261.84375 164.59375 259.882812 C 162.160156 258.175781 159.628906 256.570312 157.492188 254.453125 C 156.867188 253.832031 156.328125 253.199219 156.125 252.339844 C 155.5 249.707031 154.707031 247.132812 153.542969 244.675781 C 153.304688 244.167969 153.21875 243.585938 153.046875 243.046875 C 151.816406 239.113281 150.578125 235.183594 149.335938 231.253906 C 149.269531 230.976562 149.167969 230.710938 149.035156 230.460938 C 147.460938 228.011719 146.953125 225.1875 146.230469 222.445312 C 145.792969 220.792969 145.433594 219.125 144.578125 217.613281 C 144.308594 217.113281 144.101562 216.582031 143.964844 216.03125 C 142.207031 209.4375 139.761719 203.042969 138.058594 195.332031 C 137.710938 193.871094 137.179688 191.363281 136.496094 188.898438 C 135.960938 186.988281 135.035156 185.167969 134.648438 183.234375 C 134.28125 181.433594 134.144531 179.578125 133.710938 177.777344 C 133.511719 176.949219 133.375 176.078125 133.007812 175.324219 C 131.953125 173.113281 131.488281 170.734375 130.90625 168.390625 C 129.125 161.214844 127.382812 154.023438 125.605469 146.847656 C 125.023438 144.5 124.4375 142.171875 123.359375 139.96875 C 122.75 138.71875 122.617188 137.242188 122.292969 135.859375 C 122.167969 135.332031 122.871094 134.765625 123.382812 134.929688 C 123.652344 135.015625 123.933594 135.070312 124.195312 135.175781 C 124.859375 135.4375 125.554688 135.648438 126.171875 135.992188 C 129.527344 137.855469 133.167969 139.167969 136.386719 141.296875 C 137.101562 141.773438 137.851562 142.175781 138.640625 142.515625 C 143.652344 144.640625 147.984375 147.9375 152.679688 150.605469 C 153.207031 150.90625 153.523438 151.359375 153.628906 151.957031 C 154.136719 154.46875 154.640625 156.976562 155.152344 159.484375 C 155.773438 162.550781 156.332031 165.632812 157.25 168.632812 C 157.40625 169.179688 157.527344 169.738281 157.609375 170.300781 C 157.996094 172.675781 158.109375 175.074219 158.839844 177.421875 C 159.503906 179.574219 159.78125 181.886719 159.953125 184.140625 C 160.285156 188.5625 161.4375 192.820312 162.269531 197.144531 C 162.511719 198.398438 162.785156 199.640625 162.777344 200.941406 C 162.773438 201.929688 162.960938 202.921875 163.128906 203.902344 C 163.558594 206.421875 164.261719 208.898438 164.226562 211.484375 C 165.269531 216.0625 165.726562 220.75 166.726562 225.324219 C 168.511719 233.523438 170.410156 241.703125 172.261719 249.886719 C 172.386719 250.441406 172.589844 251 172.625 251.554688 C 172.890625 255.695312 174.074219 259.667969 174.773438 263.726562 Z M 174.773438 263.726562 " fill-opacity="1" fill-rule="nonzero"/></g></g></g><g clip-path="url(#be5bdaed03)"><g clip-path="url(#c6586ece79)"><g clip-path="url(#a324bce9f4)"><path fill="#ffffff" d="M 244.152344 281.777344 L 282.371094 303.089844 L 247.84375 320.417969 Z M 290.410156 207.882812 L 295.398438 197.109375 L 284.164062 197.015625 L 279.902344 216.640625 L 290.050781 208.671875 Z M 291.808594 208.664062 L 324.972656 227.15625 L 328.113281 169.386719 L 297.289062 196.816406 Z M 296.335938 195.527344 L 325.300781 169.765625 L 282.167969 185.957031 L 284.171875 195.429688 Z M 282.714844 196.207031 L 280.925781 187.761719 L 242.148438 260.84375 L 243.910156 279.292969 L 277.890625 218.351562 L 282.710938 196.214844 Z M 329.527344 172.761719 L 326.5625 227.261719 L 341.820312 221.105469 Z M 279.265625 219.160156 L 245.074219 280.480469 L 283.757812 302.050781 L 324.621094 228.769531 L 290.949219 209.996094 Z M 326.265625 229.09375 L 286.027344 301.253906 L 305.496094 291.484375 L 341.058594 223.125 Z M 326.265625 229.09375 " fill-opacity="1" fill-rule="nonzero"/></g></g></g><g clip-path="url(#9272d92ca9)"><g clip-path="url(#83a1d5fed5)"><g clip-path="url(#482d7019e0)"><path fill="#ffffff" d="M 43.867188 240.09375 C 44.5 241.453125 45.332031 242.71875 46.074219 244.023438 L 45.980469 244.074219 C 47.648438 247.242188 49.3125 250.410156 50.976562 253.574219 C 52.429688 255.449219 53.371094 257.617188 54.511719 259.671875 C 54.601562 259.839844 54.6875 260.007812 54.792969 260.164062 C 57.261719 263.742188 58.945312 267.75 60.984375 271.558594 C 61.960938 273.378906 62.777344 275.285156 64.046875 276.949219 C 64.554688 277.617188 64.914062 278.402344 65.296875 279.15625 C 66.578125 281.675781 67.835938 284.203125 69.105469 286.722656 C 69.359375 287.230469 69.570312 287.769531 69.898438 288.21875 C 71.515625 290.445312 72.574219 292.972656 73.839844 295.386719 C 74.71875 297.050781 75.59375 298.707031 76.691406 300.257812 C 77.503906 301.402344 78.113281 302.691406 78.773438 303.941406 C 79.332031 305.027344 79.945312 306.085938 80.617188 307.109375 C 81.347656 308.199219 81.929688 309.390625 82.539062 310.558594 C 83.9375 313.226562 85.339844 315.890625 86.683594 318.585938 C 87.492188 320.203125 88.601562 321.601562 89.5625 323.109375 C 89.828125 323.515625 90.191406 323.804688 90.648438 323.972656 C 90.820312 324.046875 90.996094 324.113281 91.179688 324.167969 C 93.800781 324.910156 96.410156 325.707031 99.054688 326.367188 C 100.515625 326.730469 101.992188 327.015625 103.429688 327.472656 C 103.871094 327.609375 104.347656 327.65625 104.804688 327.734375 C 105.019531 327.769531 105.367188 327.484375 105.410156 327.230469 C 105.5 326.679688 105.550781 326.121094 105.667969 325.574219 C 105.691406 325.453125 105.914062 325.359375 106.066406 325.292969 C 106.121094 325.265625 106.253906 325.347656 106.3125 325.410156 C 106.789062 325.910156 107.003906 326.539062 107.042969 327.203125 C 107.089844 327.921875 107.566406 328.136719 108.128906 328.300781 C 108.402344 328.375 108.675781 328.445312 108.949219 328.496094 C 109.410156 328.585938 109.941406 328.089844 109.839844 327.664062 C 109.765625 327.296875 109.65625 326.9375 109.519531 326.589844 C 108.988281 325.386719 108.421875 324.199219 108.164062 322.886719 C 108.058594 322.347656 107.730469 321.851562 107.515625 321.328125 C 107.304688 320.808594 107.042969 320.289062 106.949219 319.742188 C 106.738281 318.511719 106.203125 317.417969 105.660156 316.320312 C 105.246094 315.476562 104.84375 314.625 104.414062 313.789062 C 103.382812 311.761719 102.925781 309.53125 102.148438 307.417969 C 101.859375 306.625 101.585938 305.824219 101.3125 305.023438 C 100.976562 304.046875 100.671875 303.058594 100.308594 302.085938 C 99.914062 301.027344 99.464844 299.992188 99.054688 298.941406 C 98.710938 298.066406 98.394531 297.183594 98.0625 296.304688 C 97.828125 295.691406 97.597656 295.074219 97.351562 294.464844 C 96.855469 293.242188 96.296875 292.050781 96.042969 290.742188 C 95.941406 290.277344 95.785156 289.835938 95.578125 289.410156 C 94.894531 287.953125 94.433594 286.421875 94.03125 284.878906 C 93.628906 283.324219 93.101562 281.816406 92.441406 280.355469 C 91.507812 278.300781 91.019531 276.070312 90.039062 274.027344 C 89.84375 273.613281 89.808594 273.121094 89.683594 272.664062 C 89.140625 270.664062 88.554688 268.683594 87.5625 266.839844 C 86.925781 265.679688 86.476562 264.449219 86.21875 263.148438 C 86.097656 262.515625 85.800781 261.90625 85.535156 261.304688 C 84.964844 260.015625 84.316406 258.757812 84.085938 257.34375 C 84.039062 257.070312 83.902344 256.808594 83.785156 256.550781 C 82.4375 253.535156 81.589844 250.355469 80.671875 247.195312 C 79.886719 244.492188 79.121094 241.78125 78.292969 239.089844 C 77.914062 237.832031 77.378906 236.621094 76.945312 235.378906 C 76.757812 234.828125 76.417969 234.394531 75.933594 234.074219 C 72.980469 232.050781 69.933594 230.199219 66.675781 228.691406 C 65.054688 227.941406 63.519531 227.011719 61.929688 226.203125 C 59.832031 225.140625 57.722656 224.113281 55.613281 223.078125 C 55.359375 222.953125 55.074219 222.890625 54.828125 222.757812 C 53.578125 222.082031 52.558594 222.429688 51.464844 223.253906 C 48.675781 225.351562 46.316406 227.921875 43.703125 230.207031 C 42.929688 230.878906 42.316406 231.734375 41.648438 232.527344 C 41.257812 232.988281 41.136719 233.527344 41.375 234.105469 C 42.195312 236.105469 42.960938 238.132812 43.867188 240.09375 Z M 43.957031 234.980469 C 43.640625 234.832031 43.507812 234.285156 43.734375 234.035156 C 44.058594 233.683594 44.429688 233.410156 44.9375 233.535156 C 45.09375 233.578125 45.207031 233.75 45.335938 233.863281 C 45.398438 234.261719 45.246094 234.589844 44.996094 234.871094 C 44.792969 235.105469 44.292969 235.136719 43.960938 234.980469 Z M 46.730469 232.042969 C 46.582031 231.832031 46.585938 231.441406 46.75 231.300781 C 46.886719 231.1875 47.035156 231.085938 47.246094 230.925781 C 47.429688 230.894531 47.695312 230.804688 47.949219 230.824219 C 48.089844 230.832031 48.324219 231.011719 48.332031 231.121094 C 48.359375 231.621094 47.917969 232.21875 47.445312 232.320312 C 47.144531 232.390625 46.90625 232.300781 46.734375 232.042969 Z M 50.105469 229.199219 C 49.960938 229.199219 49.816406 229.03125 49.671875 228.941406 C 49.546875 228.484375 49.738281 228.042969 50.175781 227.785156 C 50.335938 227.683594 50.511719 227.644531 50.703125 227.660156 C 50.894531 227.675781 51.058594 227.746094 51.203125 227.875 C 51.308594 227.96875 51.371094 228.085938 51.386719 228.226562 C 51.402344 228.367188 51.371094 228.496094 51.289062 228.613281 C 51 229.015625 50.605469 229.210938 50.109375 229.203125 Z M 52.929688 226.484375 C 52.753906 226.429688 52.804688 225.917969 52.976562 225.734375 C 53.246094 225.449219 53.574219 225.304688 53.964844 225.300781 C 54.054688 225.300781 54.203125 225.328125 54.222656 225.378906 C 54.28125 225.535156 54.367188 225.757812 54.300781 225.871094 C 54.167969 226.101562 53.945312 226.277344 53.804688 226.421875 C 53.640625 226.480469 53.554688 226.535156 53.46875 226.535156 C 53.285156 226.546875 53.105469 226.527344 52.929688 226.484375 Z M 104.191406 323.242188 C 103.902344 323.050781 103.882812 322.617188 104.085938 322.273438 C 104.207031 322.0625 104.480469 322.023438 104.816406 322.171875 C 105.070312 322.285156 105.347656 322.4375 105.316406 322.738281 C 105.289062 322.96875 105.101562 323.183594 104.960938 323.453125 C 104.671875 323.382812 104.390625 323.375 104.191406 323.242188 Z M 100.414062 314.410156 C 100.246094 314.242188 100.140625 314.039062 100.097656 313.800781 C 100.054688 313.566406 100.085938 313.339844 100.1875 313.121094 C 100.269531 312.917969 100.414062 312.796875 100.628906 312.847656 C 100.800781 312.890625 101.027344 312.957031 101.101562 313.089844 C 101.230469 313.289062 101.296875 313.507812 101.300781 313.746094 C 101.304688 313.984375 101.242188 314.203125 101.121094 314.40625 C 101.082031 314.476562 100.972656 314.5 100.894531 314.546875 C 100.738281 314.5 100.515625 314.515625 100.414062 314.410156 Z M 98.59375 310.570312 C 98.027344 310.023438 97.957031 309.101562 98.472656 308.550781 C 98.566406 308.449219 98.832031 308.445312 98.984375 308.496094 C 99.136719 308.546875 99.265625 308.71875 99.492188 308.917969 C 99.53125 309.289062 99.605469 309.742188 99.613281 310.199219 C 99.617188 310.367188 99.480469 310.546875 99.382812 310.695312 C 99.292969 310.828125 98.761719 310.726562 98.597656 310.570312 Z M 103.027344 319.53125 C 102.367188 319.1875 102.109375 318.398438 102.398438 317.65625 C 102.429688 317.558594 102.492188 317.492188 102.589844 317.457031 C 102.6875 317.421875 102.777344 317.433594 102.863281 317.488281 C 103.675781 317.933594 103.90625 318.414062 103.707031 319.28125 C 103.691406 319.359375 103.601562 319.425781 103.546875 319.496094 C 103.375 319.511719 103.164062 319.597656 103.03125 319.53125 Z M 96.550781 305.007812 C 96.253906 304.507812 96.28125 303.9375 96.421875 303.378906 C 96.527344 303.082031 96.738281 302.925781 97.050781 302.90625 C 97.347656 302.902344 97.605469 302.996094 97.746094 303.273438 C 98.074219 303.914062 98.015625 304.539062 97.667969 305.152344 C 97.617188 305.230469 97.554688 305.300781 97.488281 305.367188 C 97.402344 305.386719 97.292969 305.449219 97.234375 305.417969 C 97 305.296875 96.671875 305.210938 96.554688 305.007812 Z M 95.496094 300.460938 C 94.894531 299.992188 94.585938 299.144531 94.824219 298.476562 C 94.871094 298.335938 95.082031 298.21875 95.246094 298.148438 C 95.496094 298.03125 95.863281 298.15625 95.976562 298.339844 C 96.382812 298.953125 96.410156 299.582031 96.195312 300.238281 C 96.117188 300.480469 95.707031 300.617188 95.5 300.457031 Z M 93.503906 295.351562 C 93.167969 294.683594 93.074219 293.960938 93.121094 293.226562 C 93.128906 293.082031 93.296875 292.9375 93.417969 292.8125 C 93.574219 292.648438 94 292.761719 94.128906 292.972656 C 94.222656 293.128906 94.324219 293.28125 94.496094 293.546875 C 94.625 293.9375 94.804688 294.457031 94.960938 294.972656 C 95.042969 295.246094 94.714844 295.699219 94.402344 295.792969 C 94.09375 295.890625 93.878906 295.746094 93.671875 295.5625 C 93.605469 295.5 93.550781 295.429688 93.507812 295.351562 Z M 92.25 290.152344 C 92.007812 290.070312 91.691406 289.953125 91.597656 289.761719 C 91.339844 289.234375 91.339844 288.707031 91.597656 288.179688 C 91.652344 288.050781 91.878906 287.949219 92.039062 287.917969 C 92.226562 287.886719 92.402344 287.917969 92.566406 288.011719 C 92.730469 288.101562 92.847656 288.238281 92.914062 288.414062 C 93.101562 288.921875 93.09375 289.207031 92.878906 289.734375 C 92.773438 289.988281 92.472656 290.226562 92.25 290.152344 Z M 89.625 284.402344 C 89.292969 284.03125 89.203125 283.605469 89.355469 283.128906 C 89.519531 282.542969 90.179688 282.359375 90.648438 282.769531 C 91.144531 283.207031 91.128906 283.976562 90.617188 284.441406 C 90.363281 284.671875 89.839844 284.652344 89.625 284.402344 Z M 89.003906 280.027344 C 88.601562 280.242188 87.941406 280.066406 87.859375 279.679688 C 87.777344 279.238281 87.730469 278.792969 87.71875 278.34375 C 87.707031 278.085938 87.949219 277.832031 88.203125 277.777344 C 88.550781 277.703125 88.988281 277.933594 89.058594 278.265625 C 89.160156 278.707031 89.234375 279.152344 89.273438 279.601562 C 89.285156 279.738281 89.097656 279.886719 89.003906 280.027344 Z M 86.582031 274.800781 C 86.347656 274.726562 86.027344 274.546875 85.964844 274.34375 C 85.78125 273.726562 85.648438 273.097656 85.566406 272.460938 C 85.542969 272.324219 85.683594 272.121094 85.808594 272.015625 C 85.917969 271.921875 86.046875 271.878906 86.191406 271.882812 C 86.332031 271.886719 86.457031 271.9375 86.566406 272.03125 C 86.8125 272.296875 87.042969 272.578125 87.074219 272.613281 C 87.453125 273.3125 87.546875 273.75 87.410156 274.222656 C 87.3125 274.5625 86.90625 274.902344 86.582031 274.800781 Z M 84.320312 268.832031 C 84.210938 268.691406 84.117188 268.535156 84.019531 268.386719 C 83.96875 268.214844 83.910156 268.042969 83.871094 267.871094 C 83.855469 267.78125 83.847656 267.691406 83.859375 267.601562 C 83.871094 267.300781 84.066406 267.125 84.3125 267 C 84.53125 266.894531 84.894531 266.984375 85.042969 267.179688 C 85.402344 267.640625 85.519531 268.128906 85.234375 268.683594 C 85.066406 268.992188 84.523438 269.09375 84.320312 268.832031 Z M 82.574219 263.808594 C 82.246094 263.546875 82.015625 263.214844 81.886719 262.816406 C 81.757812 262.417969 81.75 262.015625 81.859375 261.609375 C 81.929688 261.4375 82.050781 261.320312 82.222656 261.257812 C 82.398438 261.210938 82.566406 261.234375 82.726562 261.320312 C 82.875 261.402344 82.972656 261.582031 83.1875 261.820312 C 83.292969 262.222656 83.457031 262.742188 83.558594 263.273438 C 83.585938 263.414062 83.449219 263.613281 83.335938 263.738281 C 83.167969 263.925781 82.742188 263.9375 82.574219 263.808594 Z M 80.582031 258.574219 C 80.464844 258.433594 80.363281 258.28125 80.214844 258.078125 C 80.15625 257.871094 80.078125 257.613281 80.015625 257.347656 C 79.988281 257.257812 79.992188 257.167969 80.019531 257.082031 C 80.089844 256.914062 80.160156 256.65625 80.273438 256.628906 C 80.515625 256.570312 80.851562 256.542969 81.035156 256.664062 C 81.601562 257.046875 81.746094 257.699219 81.5 258.378906 C 81.386719 258.703125 80.800781 258.832031 80.582031 258.574219 Z M 78.796875 252.941406 C 78.574219 252.929688 78.203125 252.699219 78.175781 252.523438 C 78.09375 251.886719 78.070312 251.246094 78.101562 250.605469 C 78.105469 250.472656 78.332031 250.347656 78.503906 250.171875 C 78.71875 250.25 79.082031 250.265625 79.183594 250.4375 C 79.574219 251.105469 79.664062 251.816406 79.453125 252.5625 C 79.402344 252.746094 79.023438 252.949219 78.796875 252.941406 Z M 77.066406 247.460938 C 76.871094 247.457031 76.703125 247.390625 76.554688 247.265625 C 76.410156 247.144531 76.316406 246.984375 76.28125 246.796875 C 76.207031 246.242188 76.128906 245.6875 76.097656 245.125 C 76.089844 244.972656 76.242188 244.699219 76.359375 244.675781 C 76.628906 244.636719 76.890625 244.664062 77.144531 244.765625 C 77.292969 244.824219 77.382812 245.039062 77.59375 245.300781 C 77.675781 245.617188 77.816406 246.066406 77.898438 246.523438 C 77.980469 246.980469 77.503906 247.480469 77.066406 247.460938 Z M 75.1875 241.210938 C 74.738281 240.960938 74.613281 240.539062 74.566406 240.074219 C 74.546875 239.863281 74.871094 239.449219 75.035156 239.488281 C 75.199219 239.523438 75.417969 239.597656 75.492188 239.722656 C 75.667969 240.035156 75.800781 240.363281 75.890625 240.710938 C 75.921875 240.839844 75.761719 241.015625 75.691406 241.171875 C 75.535156 241.328125 75.378906 241.320312 75.1875 241.214844 Z M 74.070312 236.734375 C 73.90625 236.679688 73.683594 236.566406 73.648438 236.433594 C 73.554688 236.082031 73.519531 235.722656 73.53125 235.359375 C 73.539062 235.238281 73.742188 235.0625 73.886719 235.019531 C 74.035156 234.972656 74.222656 235.042969 74.382812 235.097656 C 74.457031 235.121094 74.5 235.230469 74.5625 235.304688 C 74.722656 235.636719 74.824219 235.972656 74.679688 236.34375 C 74.578125 236.609375 74.308594 236.816406 74.070312 236.738281 Z M 74.070312 236.734375 " fill-opacity="1" fill-rule="nonzero"/></g></g></g><g clip-path="url(#30a1b34b7b)"><g clip-path="url(#f6a327386b)"><g clip-path="url(#05972b1fa1)"><path fill="#ffffff" d="M 41.832031 229.28125 C 41.839844 229.335938 41.960938 229.367188 42.082031 229.441406 C 42.304688 229.308594 42.519531 229.160156 42.722656 228.996094 C 44.667969 227.234375 46.59375 225.453125 48.550781 223.699219 C 49.523438 222.820312 50.554688 222 51.539062 221.132812 C 52.128906 220.605469 52.386719 219.953125 52.335938 219.128906 C 52.15625 216.316406 52.082031 213.5 51.863281 210.695312 C 51.59375 207.226562 51.492188 203.757812 51.449219 200.285156 C 51.417969 197.65625 51.28125 195.03125 51.1875 192.40625 C 51.183594 192.339844 51.074219 192.210938 51.042969 192.21875 C 50.886719 192.261719 50.632812 192.300781 50.601562 192.40625 C 49.707031 195.273438 48.824219 198.140625 47.960938 201.015625 C 47.71875 201.824219 47.585938 202.664062 47.382812 203.476562 C 47.015625 204.929688 46.882812 206.449219 46.210938 207.816406 C 45.835938 209.75 45.410156 211.671875 45.101562 213.617188 C 44.863281 215.195312 44.535156 216.757812 44.117188 218.296875 C 43.820312 219.375 43.699219 220.511719 43.421875 221.597656 C 42.96875 223.417969 42.695312 225.28125 42.105469 227.070312 C 41.878906 227.765625 41.699219 228.519531 41.832031 229.28125 Z M 41.832031 229.28125 " fill-opacity="1" fill-rule="nonzero"/></g></g></g><g clip-path="url(#c20f2f0e3e)"><g clip-path="url(#d8a8b99e38)"><g clip-path="url(#f0f7ccd3fc)"><path fill="#ffffff" d="M 53.695312 215.679688 C 53.796875 217.179688 53.988281 218.671875 54.148438 220.230469 C 56.214844 221.699219 58.277344 222.613281 60.285156 223.628906 C 61.628906 224.304688 62.953125 225.027344 64.289062 225.714844 C 64.957031 226.0625 65.613281 226.449219 66.3125 226.703125 C 67.386719 227.089844 68.316406 227.730469 69.3125 228.234375 C 71.75 229.476562 74.023438 230.984375 76.351562 232.398438 C 77.023438 232.808594 77.664062 232.964844 78.480469 232.742188 C 79.394531 232.492188 80.277344 232.214844 81.125 231.796875 C 82.8125 230.960938 84.503906 230.140625 86.207031 229.328125 C 90.195312 227.425781 94.199219 225.539062 98.1875 223.632812 C 99.035156 223.226562 99.855469 222.769531 100.679688 222.3125 C 100.886719 222.1875 101.027344 222.003906 101.097656 221.769531 C 101.167969 221.535156 101.152344 221.308594 101.050781 221.085938 C 100.15625 219.214844 99.261719 217.347656 98.34375 215.492188 C 97.546875 213.890625 96.734375 212.296875 95.894531 210.71875 C 95.234375 209.472656 94.613281 208.210938 93.75 207.074219 C 93.1875 206.328125 92.769531 205.46875 92.328125 204.636719 C 91.445312 202.976562 90.59375 201.296875 89.71875 199.628906 C 89.457031 199.125 89.183594 198.632812 88.902344 198.144531 C 88.617188 197.621094 88.1875 197.277344 87.617188 197.105469 C 85.722656 196.539062 83.832031 195.976562 81.933594 195.421875 C 81.574219 195.316406 81.183594 195.308594 80.835938 195.175781 C 76.953125 193.707031 72.8125 193.152344 68.910156 191.722656 C 67.332031 191.140625 65.652344 190.8125 64 190.46875 C 62.429688 190.152344 60.894531 189.714844 59.394531 189.164062 C 57.71875 188.515625 55.988281 188.070312 54.210938 187.828125 C 53.402344 187.722656 53.058594 187.960938 52.957031 188.917969 C 52.925781 189.199219 52.910156 189.480469 52.910156 189.761719 C 52.910156 191.734375 52.933594 193.710938 52.910156 195.679688 C 52.859375 200.210938 53 204.597656 53.292969 208.644531 C 53.460938 210.984375 53.53125 213.335938 53.695312 215.679688 Z M 56.550781 192.640625 C 56.097656 192.535156 55.699219 192.328125 55.554688 191.835938 C 55.546875 191.738281 55.582031 191.65625 55.652344 191.589844 C 56.214844 191.136719 56.886719 191.1875 57.359375 191.707031 C 57.519531 191.882812 57.488281 192.242188 57.28125 192.480469 C 57.101562 192.714844 56.816406 192.707031 56.550781 192.640625 Z M 59.976562 193.507812 C 59.726562 193.242188 59.84375 192.757812 60.179688 192.601562 C 60.582031 192.414062 60.960938 192.472656 61.21875 192.839844 C 61.210938 193.007812 61.285156 193.308594 61.175781 193.503906 C 60.972656 193.867188 60.277344 193.835938 59.976562 193.511719 Z M 63.765625 194.441406 C 63.664062 194.417969 63.589844 194.359375 63.539062 194.269531 C 63.492188 194.183594 63.484375 194.089844 63.515625 193.992188 C 63.5625 193.820312 63.628906 193.601562 63.753906 193.519531 C 64.222656 193.222656 64.933594 193.3125 65.289062 193.679688 C 65.339844 193.753906 65.378906 193.835938 65.40625 193.921875 C 65.507812 194.289062 65.1875 194.738281 64.828125 194.699219 C 64.46875 194.640625 64.113281 194.554688 63.765625 194.441406 Z M 68.074219 195.753906 C 68.082031 195.574219 68.054688 195.375 68.113281 195.210938 C 68.222656 194.929688 68.515625 194.722656 68.765625 194.804688 C 69.199219 194.972656 69.605469 195.195312 69.976562 195.476562 C 70.066406 195.542969 70.0625 195.847656 69.996094 195.996094 C 69.910156 196.164062 69.777344 196.269531 69.59375 196.3125 C 68.992188 196.386719 68.484375 196.203125 68.070312 195.753906 Z M 72.667969 197.640625 C 72.519531 197.578125 72.445312 197.363281 72.339844 197.214844 C 72.222656 196.980469 72.417969 196.636719 72.675781 196.578125 C 73.132812 196.449219 73.589844 196.464844 74.039062 196.617188 C 74.3125 196.753906 74.453125 196.972656 74.453125 197.277344 C 74.421875 197.660156 74.070312 198.011719 73.722656 197.949219 C 73.355469 197.886719 73.003906 197.785156 72.660156 197.636719 Z M 77.042969 198.882812 C 76.78125 198.730469 76.648438 198.503906 76.644531 198.199219 C 76.628906 197.960938 76.90625 197.730469 77.253906 197.753906 C 77.621094 197.785156 77.988281 197.84375 78.347656 197.925781 C 78.492188 197.964844 78.59375 198.050781 78.664062 198.179688 C 78.730469 198.308594 78.738281 198.441406 78.6875 198.582031 C 78.628906 198.746094 78.488281 198.878906 78.386719 199.027344 C 77.949219 199.191406 77.515625 199.152344 77.039062 198.882812 Z M 80.539062 199.253906 C 80.40625 199.203125 80.316406 198.984375 80.253906 198.824219 C 80.183594 198.644531 80.539062 198.320312 80.78125 198.300781 C 81.640625 198.230469 82.394531 198.453125 83.011719 199.082031 C 83.132812 199.207031 83.003906 199.753906 82.757812 199.84375 C 82.75 199.84375 82.660156 199.929688 82.601562 199.910156 C 81.90625 199.707031 81.214844 199.5 80.539062 199.253906 Z M 85.867188 200.167969 C 85.769531 200.085938 85.757812 199.808594 85.8125 199.664062 C 85.933594 199.363281 86.15625 199.222656 86.476562 199.234375 C 87.070312 199.25 87.53125 199.546875 87.894531 200.003906 C 88.054688 200.203125 87.90625 200.664062 87.761719 200.691406 C 86.949219 200.886719 86.375 200.601562 85.863281 200.167969 Z M 85.867188 200.167969 " fill-opacity="1" fill-rule="nonzero"/></g></g></g><g clip-path="url(#2acc759979)"><g clip-path="url(#836bb4d427)"><g clip-path="url(#a333af3731)"><path fill="#ffffff" d="M 109.332031 321.015625 C 109.5 321.445312 109.628906 321.914062 110.035156 322.242188 C 110.207031 321.425781 110.152344 320.617188 110.082031 319.8125 C 109.585938 314.1875 109.09375 308.566406 108.597656 302.941406 C 108.546875 302.378906 108.566406 301.8125 108.527344 301.25 C 108.476562 300.5 108.433594 299.746094 108.328125 299.003906 C 108.097656 297.421875 107.828125 295.847656 107.578125 294.269531 C 107.558594 294.175781 107.546875 294.082031 107.546875 293.988281 C 107.699219 291.519531 107.035156 289.132812 106.785156 286.703125 C 106.546875 284.363281 106.226562 282.03125 105.945312 279.695312 C 105.785156 278.390625 105.648438 277.082031 105.640625 275.761719 C 105.617188 273.6875 105.441406 271.625 105.113281 269.578125 C 105.015625 268.925781 104.925781 268.273438 104.863281 267.621094 C 104.425781 262.746094 104.007812 257.875 103.734375 252.992188 C 103.699219 252.335938 103.59375 251.683594 103.542969 251.027344 C 103.214844 246.808594 102.945312 242.585938 102.558594 238.375 C 102.261719 235.183594 102.398438 231.980469 102.105469 228.792969 C 101.976562 227.386719 101.875 225.980469 101.75 224.574219 C 101.71875 224.234375 101.226562 223.945312 100.898438 224.066406 C 100.546875 224.195312 100.191406 224.3125 99.851562 224.472656 C 98.234375 225.230469 96.625 226.007812 95.003906 226.765625 C 94.578125 226.964844 94.148438 227.1875 93.695312 227.285156 C 92.203125 227.621094 90.898438 228.394531 89.550781 229.0625 C 88.375 229.640625 87.304688 230.425781 86.027344 230.8125 C 85.9375 230.835938 85.851562 230.875 85.777344 230.933594 C 84.5625 232.019531 83.035156 232.519531 81.605469 233.203125 C 81.101562 233.449219 80.554688 233.597656 80.039062 233.820312 C 79.824219 233.917969 79.632812 234.046875 79.464844 234.214844 C 79.296875 234.382812 79.164062 234.570312 79.066406 234.785156 C 78.964844 235 78.90625 235.226562 78.890625 235.460938 C 78.871094 235.695312 78.894531 235.925781 78.957031 236.152344 C 79.003906 236.335938 79.0625 236.515625 79.132812 236.691406 C 80.875 240.675781 81.851562 244.902344 82.9375 249.085938 C 83.246094 250.277344 83.648438 251.433594 84.0625 252.570312 C 84.96875 255.039062 85.71875 257.566406 86.71875 260.003906 C 87.109375 260.957031 87.398438 261.953125 87.773438 262.914062 C 88.21875 264.054688 88.65625 265.203125 89.1875 266.300781 C 90.011719 268 90.691406 269.75 91.101562 271.597656 C 91.449219 273.171875 92.050781 274.648438 92.753906 276.09375 C 93.289062 277.195312 93.675781 278.339844 94.042969 279.515625 C 94.65625 281.488281 95.210938 283.480469 95.902344 285.433594 C 96.621094 287.46875 97.53125 289.445312 97.980469 291.574219 C 99.03125 293.992188 99.597656 296.585938 100.765625 298.964844 C 101.261719 299.972656 101.773438 300.988281 101.910156 302.140625 C 101.96875 302.515625 102.089844 302.871094 102.269531 303.207031 C 103.082031 304.8125 103.613281 306.511719 104.058594 308.246094 C 104.621094 310.453125 105.6875 312.453125 106.644531 314.496094 C 107.367188 316.035156 108.148438 317.539062 108.703125 319.144531 C 108.917969 319.765625 109.089844 320.402344 109.332031 321.015625 Z M 109.332031 321.015625 " fill-opacity="1" fill-rule="nonzero"/></g></g></g><g clip-path="url(#960abd1438)"><g clip-path="url(#5a627113b3)"><g clip-path="url(#991bcc0e3b)"><path fill="#ffffff" d="M 112.671875 326.730469 C 112.6875 326.875 112.890625 327.058594 113.042969 327.105469 C 113.222656 327.128906 113.371094 327.070312 113.488281 326.933594 C 114.558594 325.167969 116.050781 323.667969 116.800781 321.699219 C 116.863281 321.53125 117.007812 321.390625 117.121094 321.238281 C 119.007812 318.761719 120.382812 315.96875 122.050781 313.351562 C 123.210938 311.53125 124.25 309.632812 125.316406 307.753906 C 125.824219 306.859375 126.246094 305.910156 126.765625 305.015625 C 128.882812 301.355469 131.011719 297.699219 133.15625 294.054688 C 133.535156 293.40625 133.984375 292.800781 134.382812 292.164062 C 134.683594 291.6875 135.019531 291.222656 135.21875 290.703125 C 136.003906 288.660156 136.355469 288.445312 135.507812 285.839844 C 134.375 282.355469 133.375 278.828125 132.535156 275.257812 C 132.125 273.527344 131.367188 271.886719 130.867188 270.171875 C 129.847656 266.648438 128.328125 263.300781 127.449219 259.726562 C 127.003906 257.910156 126.203125 256.183594 125.609375 254.402344 C 125.015625 252.621094 124.484375 250.8125 123.921875 249.023438 C 123.722656 248.398438 123.539062 247.765625 123.296875 247.152344 C 122.855469 246.015625 122.304688 244.921875 122.097656 243.695312 C 122.050781 243.421875 121.914062 243.164062 121.8125 242.902344 C 120.902344 240.628906 119.992188 238.359375 119.085938 236.089844 C 118.941406 235.742188 118.761719 235.40625 118.65625 235.046875 C 117.734375 231.785156 116.394531 228.664062 115.4375 225.417969 C 115.398438 225.234375 115.34375 225.054688 115.277344 224.878906 C 114.046875 222.222656 113.207031 219.429688 112.394531 216.632812 C 112.292969 216.285156 111.765625 216.074219 111.476562 216.257812 C 111.003906 216.5625 110.523438 216.859375 110.078125 217.199219 C 108.964844 218.058594 107.917969 219.027344 106.738281 219.789062 C 105.578125 220.535156 104.773438 221.511719 104.183594 222.714844 C 103.9375 223.21875 103.726562 223.742188 103.464844 224.332031 C 103.585938 226.980469 103.742188 229.421875 103.796875 231.863281 C 103.890625 235.816406 104.292969 239.75 104.621094 243.683594 C 104.785156 245.652344 104.9375 247.617188 105.050781 249.585938 C 105.320312 254.375 105.832031 259.144531 106.210938 263.925781 C 106.425781 266.640625 106.605469 269.355469 107.039062 272.054688 C 107.214844 273.164062 107.21875 274.304688 107.238281 275.433594 C 107.28125 277.980469 107.617188 280.496094 107.953125 283.011719 C 108.101562 284.128906 108.175781 285.257812 108.28125 286.378906 C 108.316406 286.753906 108.324219 287.132812 108.367188 287.503906 C 108.988281 292.542969 109.613281 297.582031 110.238281 302.621094 C 110.285156 302.992188 110.367188 303.363281 110.355469 303.738281 C 110.3125 305.535156 110.5625 307.304688 110.78125 309.078125 C 110.957031 310.476562 111.109375 311.875 111.152344 313.289062 C 111.1875 314.511719 111.378906 315.722656 111.5 316.941406 C 111.617188 318.15625 111.8125 319.371094 111.839844 320.589844 C 111.890625 322.675781 112.414062 324.683594 112.671875 326.730469 Z M 114.515625 320.644531 C 114.296875 320.761719 113.855469 320.664062 113.789062 320.492188 C 113.449219 319.6875 113.476562 318.898438 113.871094 318.121094 C 113.914062 318.039062 114.261719 317.988281 114.335938 318.058594 C 114.984375 318.671875 115.164062 319.429688 114.886719 320.277344 C 114.839844 320.429688 114.644531 320.527344 114.515625 320.648438 Z M 114.003906 315.125 C 113.863281 315.15625 113.585938 315.066406 113.542969 314.960938 C 113.328125 314.441406 113.246094 313.878906 113.433594 313.332031 C 113.488281 313.179688 113.65625 313.046875 113.800781 312.945312 C 113.988281 312.8125 114.382812 312.929688 114.550781 313.136719 C 114.605469 313.207031 114.660156 313.285156 114.714844 313.359375 C 115.105469 314.152344 114.800781 314.945312 114.003906 315.128906 Z M 113.152344 309.152344 C 113.105469 309.078125 113.066406 309.003906 113.039062 308.921875 C 112.914062 308.367188 113.230469 307.742188 113.695312 307.609375 C 113.886719 307.558594 114.324219 307.722656 114.421875 307.890625 C 114.667969 308.335938 114.554688 308.757812 114.3125 309.15625 C 114.089844 309.523438 113.398438 309.511719 113.152344 309.15625 Z M 113.761719 304.253906 C 113.570312 304.347656 113.101562 304.085938 113.070312 303.90625 C 112.941406 303.160156 112.898438 302.421875 113.113281 301.6875 C 113.140625 301.601562 113.195312 301.542969 113.28125 301.511719 C 113.464844 301.5 113.644531 301.515625 113.824219 301.554688 C 113.902344 301.570312 113.960938 301.671875 114.03125 301.734375 C 114.082031 301.808594 114.125 301.890625 114.160156 301.976562 C 114.351562 302.621094 114.339844 303.261719 114.128906 303.902344 C 114.046875 304.0625 113.925781 304.179688 113.761719 304.253906 Z M 112.925781 297.777344 C 112.472656 297.019531 112.441406 296.207031 112.738281 295.386719 C 112.78125 295.261719 113.035156 295.164062 113.199219 295.148438 C 113.363281 295.136719 113.535156 295.25 113.691406 295.300781 C 113.773438 295.46875 113.910156 295.625 113.917969 295.789062 C 113.941406 296.25 113.9375 296.710938 113.910156 297.171875 C 113.902344 297.359375 113.851562 297.53125 113.757812 297.695312 C 113.667969 297.839844 113.507812 298.011719 113.359375 298.027344 C 113.214844 298.042969 113 297.914062 112.921875 297.78125 Z M 112.015625 291.640625 C 111.496094 291.097656 111.671875 290.027344 112.285156 289.664062 C 112.542969 289.515625 113.191406 289.757812 113.246094 290.03125 C 113.339844 290.496094 113.386719 290.96875 113.15625 291.402344 C 113.074219 291.5625 112.902344 291.667969 112.71875 291.855469 C 112.5 291.796875 112.167969 291.804688 112.011719 291.640625 Z M 111.382812 286.109375 C 110.953125 285.425781 110.949219 284.726562 111.382812 284.03125 C 111.574219 283.726562 112.089844 283.734375 112.320312 284.042969 C 112.375 284.117188 112.429688 284.191406 112.496094 284.277344 C 112.625 284.578125 112.671875 284.890625 112.644531 285.214844 C 112.613281 285.542969 112.507812 285.839844 112.324219 286.113281 C 112.246094 286.238281 112.011719 286.328125 111.851562 286.328125 C 111.660156 286.328125 111.503906 286.253906 111.378906 286.113281 Z M 110.871094 279.96875 C 110.589844 279.878906 110.464844 279.640625 110.46875 279.355469 C 110.476562 279.175781 110.511719 279.003906 110.566406 278.835938 C 110.640625 278.617188 111.003906 278.394531 111.203125 278.46875 C 111.359375 278.523438 111.484375 278.664062 111.617188 278.761719 C 111.84375 279.109375 111.808594 279.441406 111.574219 279.753906 C 111.496094 279.871094 111.394531 279.945312 111.261719 279.988281 C 111.128906 280.027344 111 280.023438 110.871094 279.972656 Z M 110.320312 274.488281 C 110.078125 274.523438 109.730469 274.21875 109.742188 274 C 109.769531 273.441406 109.8125 272.882812 109.867188 272.324219 C 109.886719 272.097656 110.28125 271.792969 110.472656 271.863281 C 110.640625 271.921875 110.773438 272.0625 110.921875 272.167969 C 111.25 272.886719 111.226562 273.71875 110.816406 274.277344 C 110.71875 274.410156 110.492188 274.472656 110.320312 274.496094 Z M 109.875 268.5 C 109.5625 268.632812 109.042969 268.347656 109.066406 268.015625 C 109.101562 267.480469 109.175781 266.945312 109.261719 266.414062 C 109.308594 266.136719 109.636719 265.925781 109.851562 265.992188 C 110.144531 266.078125 110.320312 266.265625 110.378906 266.5625 C 110.519531 267.109375 110.480469 267.640625 110.261719 268.160156 C 110.195312 268.304688 110.003906 268.390625 109.871094 268.503906 Z M 108.980469 262.089844 C 108.832031 262 108.601562 261.9375 108.554688 261.804688 C 108.285156 261.078125 108.410156 260.347656 108.664062 259.640625 C 108.710938 259.5 108.917969 259.382812 109.078125 259.324219 C 109.3125 259.238281 109.679688 259.464844 109.746094 259.683594 C 109.972656 260.4375 109.890625 261.15625 109.441406 261.808594 C 109.347656 261.949219 109.136719 262.003906 108.980469 262.097656 Z M 108.8125 254.953125 C 108.441406 254.980469 108.066406 254.695312 108.082031 254.34375 C 108.097656 253.992188 108.171875 253.652344 108.300781 253.324219 C 108.347656 253.199219 108.582031 253.078125 108.730469 253.078125 C 108.878906 253.082031 109.015625 253.242188 109.152344 253.332031 C 109.378906 253.664062 109.335938 254.019531 109.25 254.371094 C 109.191406 254.617188 109.164062 254.929688 108.8125 254.953125 Z M 107.945312 248.886719 C 107.414062 248.242188 107.421875 247.507812 107.753906 246.78125 C 107.800781 246.679688 108.121094 246.585938 108.226562 246.644531 C 108.984375 247.046875 109.191406 248.117188 108.671875 248.832031 C 108.605469 248.894531 108.53125 248.945312 108.449219 248.980469 C 108.273438 248.953125 108.027344 248.988281 107.945312 248.886719 Z M 107.703125 242.617188 C 107.523438 242.59375 107.382812 242.5 107.289062 242.34375 C 107.046875 241.808594 107.203125 241.285156 107.4375 240.777344 C 107.535156 240.558594 107.929688 240.453125 108.148438 240.613281 C 108.304688 240.753906 108.449219 240.902344 108.582031 241.0625 C 108.589844 241.398438 108.574219 241.730469 108.546875 242.066406 C 108.5 242.378906 108.105469 242.644531 107.699219 242.621094 Z M 107.128906 236.898438 C 106.839844 236.792969 106.699219 236.585938 106.707031 236.277344 C 106.703125 235.824219 106.746094 235.363281 107.226562 235.144531 C 107.398438 235.085938 107.5625 235.109375 107.710938 235.214844 C 108.1875 235.644531 108.136719 236.390625 107.632812 236.871094 C 107.460938 236.886719 107.269531 236.953125 107.128906 236.898438 Z M 106.675781 231.371094 C 106.371094 231.304688 106.28125 231.011719 106.308594 230.71875 C 106.359375 230.257812 106.421875 229.796875 106.496094 229.335938 C 106.503906 229.234375 106.550781 229.152344 106.632812 229.089844 C 106.71875 229.03125 106.808594 229.011719 106.910156 229.03125 C 107.078125 229.058594 107.28125 229.113281 107.386719 229.234375 C 107.585938 229.4375 107.714844 229.679688 107.78125 229.960938 C 107.847656 230.238281 107.835938 230.511719 107.75 230.785156 C 107.699219 230.953125 107.554688 231.089844 107.402344 231.316406 C 107.195312 231.339844 106.921875 231.421875 106.675781 231.371094 Z M 106.902344 225.304688 C 106.753906 225.257812 106.515625 225.179688 106.5 225.082031 C 106.414062 224.542969 106.355469 224 106.332031 223.453125 C 106.339844 223.265625 106.398438 223.097656 106.515625 222.949219 C 106.613281 222.816406 106.78125 222.671875 106.933594 222.65625 C 107.082031 222.644531 107.234375 222.792969 107.390625 222.867188 C 107.453125 222.933594 107.496094 223.011719 107.53125 223.097656 C 107.652344 223.839844 107.566406 224.554688 107.140625 225.195312 C 107.082031 225.273438 107 225.308594 106.902344 225.304688 Z M 106.902344 225.304688 " fill-opacity="1" fill-rule="nonzero"/></g></g></g><g clip-path="url(#e4d264d078)"><g clip-path="url(#24d270936a)"><g clip-path="url(#f2da374152)"><path fill="#ffffff" d="M 92.5625 201.753906 C 92.925781 202.515625 93.304688 203.269531 93.976562 204.632812 C 94.558594 205.578125 95.53125 207.074219 96.410156 208.621094 C 97.476562 210.492188 98.484375 212.402344 99.488281 214.308594 C 100.273438 215.804688 101.007812 217.328125 101.78125 218.828125 C 102.007812 219.238281 102.257812 219.632812 102.53125 220.011719 C 102.679688 220.234375 103.347656 220.351562 103.5625 220.1875 C 104.675781 219.332031 105.734375 218.398438 106.898438 217.625 C 108.078125 216.839844 109.105469 215.886719 110.148438 214.953125 C 110.355469 214.769531 110.511719 214.523438 110.6875 214.308594 C 110.882812 214.074219 110.925781 213.71875 110.75 213.53125 C 110.308594 213.050781 109.902344 212.523438 109.390625 212.125 C 107.613281 210.738281 105.808594 209.394531 104.007812 208.042969 C 103.785156 207.875 103.539062 207.734375 103.28125 207.625 C 101.773438 207.015625 100.542969 205.976562 99.320312 204.972656 C 98.15625 204.015625 96.917969 203.179688 95.710938 202.292969 C 94.804688 201.628906 93.894531 200.972656 92.96875 200.335938 C 92.839844 200.25 92.613281 200.289062 92.433594 200.28125 C 92.210938 200.273438 92.121094 200.632812 92.25 200.964844 C 92.355469 201.230469 92.441406 201.5 92.5625 201.753906 Z M 92.5625 201.753906 " fill-opacity="1" fill-rule="nonzero"/></g></g></g><g clip-path="url(#0afcc38312)"><path fill="#ffffff" d="M 117.65625 176.941406 C 116.660156 173.34375 113.816406 171.636719 110.402344 171.484375 C 108.429688 171.609375 106.898438 171.921875 105.148438 173.4375 C 104.308594 174.164062 103.636719 175.035156 103.292969 176.050781 C 102.832031 177.421875 102.695312 178.820312 103.109375 180.289062 C 103.53125 181.765625 104.386719 182.90625 105.492188 183.871094 C 106.546875 184.78125 107.847656 185.222656 109.207031 185.46875 C 110.25 185.652344 111.257812 185.570312 112.273438 185.308594 C 113.65625 184.964844 114.867188 184.359375 115.851562 183.304688 C 117.539062 181.492188 118.320312 179.371094 117.65625 176.941406 Z M 104.835938 176.023438 C 104.890625 176.03125 104.9375 176.097656 105.074219 176.21875 C 104.980469 176.257812 104.914062 176.320312 104.867188 176.296875 C 104.796875 176.28125 104.753906 176.199219 104.707031 176.136719 C 104.746094 176.097656 104.796875 176.015625 104.835938 176.023438 Z M 104.195312 180.964844 C 104.125 180.957031 104.035156 180.878906 104.019531 180.808594 C 104.003906 180.773438 104.09375 180.648438 104.148438 180.640625 C 104.203125 180.632812 104.285156 180.703125 104.410156 180.773438 C 104.308594 180.871094 104.246094 180.972656 104.195312 180.964844 Z M 104.585938 178.011719 C 104.507812 177.996094 104.445312 177.871094 104.421875 177.78125 C 104.417969 177.75 104.554688 177.644531 104.605469 177.652344 C 104.691406 177.667969 104.769531 177.75 104.90625 177.859375 C 104.753906 177.933594 104.660156 178.027344 104.585938 178.011719 Z M 105.464844 180.664062 C 105.234375 180.71875 105.089844 180.527344 105.066406 180.289062 C 105.050781 180.03125 105.242188 179.777344 105.464844 179.832031 C 105.632812 179.863281 105.777344 180.03125 106.035156 180.207031 C 105.785156 180.421875 105.648438 180.621094 105.464844 180.664062 Z M 105.960938 174.890625 C 105.953125 174.644531 106.234375 174.414062 106.5625 174.4375 C 106.609375 174.515625 106.730469 174.621094 106.746094 174.75 C 106.777344 175.019531 106.472656 175.296875 106.195312 175.210938 C 106.097656 175.1875 105.96875 175.003906 105.960938 174.890625 Z M 106.386719 178.132812 C 106.335938 178.054688 106.273438 178.011719 106.28125 177.964844 C 106.289062 177.910156 106.359375 177.871094 106.394531 177.828125 C 106.433594 177.871094 106.511719 177.917969 106.511719 177.964844 C 106.519531 178.011719 106.449219 178.0625 106.386719 178.132812 Z M 106.578125 176.71875 C 106.546875 176.664062 106.488281 176.609375 106.496094 176.566406 C 106.503906 176.511719 106.5625 176.449219 106.617188 176.417969 C 106.640625 176.410156 106.710938 176.480469 106.800781 176.558594 C 106.703125 176.625 106.640625 176.671875 106.578125 176.71875 Z M 113.980469 182.851562 C 113.816406 182.617188 113.640625 182.476562 113.664062 182.386719 C 113.703125 182.234375 113.847656 182.101562 113.980469 182.003906 C 114 181.988281 114.253906 182.164062 114.246094 182.234375 C 114.222656 182.402344 114.109375 182.570312 113.980469 182.851562 Z M 114.773438 180.992188 C 114.742188 181 114.644531 180.917969 114.644531 180.886719 C 114.652344 180.808594 114.695312 180.71875 114.75 180.679688 C 114.78125 180.664062 114.878906 180.742188 115.003906 180.804688 C 114.894531 180.894531 114.84375 180.964844 114.773438 180.992188 Z M 115.332031 182.484375 C 115.285156 182.441406 115.210938 182.394531 115.210938 182.347656 C 115.210938 182.273438 115.261719 182.1875 115.308594 182.082031 C 115.402344 182.148438 115.492188 182.195312 115.492188 182.21875 C 115.445312 182.316406 115.386719 182.402344 115.332031 182.484375 Z M 116.042969 178.9375 C 116.082031 178.914062 116.203125 178.945312 116.21875 178.980469 C 116.332031 179.226562 116.210938 179.347656 115.964844 179.433594 C 115.796875 179.21875 115.796875 179.050781 116.042969 178.9375 Z M 116.257812 180.910156 C 116.242188 180.910156 116.140625 180.855469 116.089844 180.832031 C 116.140625 180.71875 116.203125 180.597656 116.257812 180.480469 C 116.316406 180.511719 116.371094 180.542969 116.433594 180.582031 C 116.378906 180.695312 116.324219 180.804688 116.257812 180.910156 Z M 90.671875 172.816406 C 91.132812 172.816406 91.460938 172.753906 91.757812 172.824219 C 94.128906 173.359375 96.488281 173.917969 98.851562 174.46875 C 98.921875 174.484375 98.996094 174.476562 99.058594 174.507812 C 99.234375 174.574219 99.460938 174.636719 99.371094 174.882812 C 99.332031 174.972656 99.097656 175.035156 98.964844 175.019531 C 98.125 174.882812 97.292969 174.746094 96.457031 174.5625 C 95.167969 174.277344 93.882812 173.972656 92.597656 173.65625 C 92.070312 173.527344 91.558594 173.359375 91.039062 173.183594 C 90.949219 173.136719 90.871094 173.007812 90.671875 172.816406 Z M 100.96875 184.445312 C 100.882812 184.550781 100.832031 184.660156 100.746094 184.710938 C 99.859375 185.285156 93.269531 187.855469 92.316406 187.957031 C 92.613281 187.734375 92.765625 187.566406 92.957031 187.472656 C 94.050781 186.976562 95.144531 186.488281 96.253906 186.019531 C 97.351562 185.554688 98.476562 185.125 99.585938 184.671875 C 100.25 184.40625 100.480469 184.351562 100.96875 184.445312 Z M 104.78125 164.203125 C 105.355469 164.308594 105.433594 164.675781 105.523438 164.960938 C 106.066406 166.664062 106.585938 168.378906 107.105469 170.101562 C 107.167969 170.300781 107.335938 170.542969 107.054688 170.75 C 106.769531 170.75 106.730469 170.507812 106.671875 170.324219 C 106.234375 169.074219 105.808594 167.828125 105.386719 166.574219 C 105.210938 166.0625 105.058594 165.542969 104.914062 165.011719 C 104.84375 164.785156 104.828125 164.53125 104.78125 164.203125 Z M 102.046875 170.445312 C 101.632812 170.628906 101.359375 170.414062 101.089844 170.230469 C 99.691406 169.273438 98.300781 168.3125 96.910156 167.332031 C 96.695312 167.179688 96.382812 167.085938 96.40625 166.71875 C 97.359375 166.75 101.535156 169.488281 102.046875 170.445312 Z M 123.175781 173.636719 C 124.832031 172.960938 126.546875 172.59375 128.265625 172.273438 C 128.457031 172.234375 128.65625 172.28125 128.890625 172.425781 C 128.777344 172.519531 128.683594 172.65625 128.554688 172.703125 C 128.113281 172.855469 127.660156 172.984375 127.203125 173.09375 C 126.054688 173.359375 124.910156 173.605469 123.753906 173.863281 C 123.542969 173.917969 123.34375 173.949219 123.175781 173.636719 Z M 110.285156 167.851562 C 109.917969 166.855469 110.316406 162.980469 110.835938 162.257812 C 111.105469 162.503906 111.035156 162.824219 111.019531 163.101562 C 110.921875 164.441406 110.796875 165.777344 110.675781 167.125 C 110.652344 167.394531 110.667969 167.691406 110.285156 167.851562 Z M 121.078125 182.101562 C 121.347656 182.164062 121.570312 182.1875 121.769531 182.273438 C 122.851562 182.730469 123.929688 183.210938 125.007812 183.679688 C 125.328125 183.816406 125.679688 183.910156 126.003906 184.054688 C 126.246094 184.167969 126.46875 184.34375 126.714844 184.503906 C 126.492188 184.863281 126.246094 184.78125 126.011719 184.679688 C 125.335938 184.398438 124.65625 184.128906 123.992188 183.832031 C 123.234375 183.496094 122.484375 183.152344 121.753906 182.785156 C 121.492188 182.660156 121.15625 182.59375 121.078125 182.101562 Z M 115.570312 190.210938 C 116.164062 190.753906 118.039062 195.046875 118.097656 196.027344 C 117.800781 196.035156 117.707031 195.804688 117.617188 195.605469 C 117.386719 195.09375 117.171875 194.574219 116.945312 194.050781 C 116.46875 192.972656 115.996094 191.902344 115.53125 190.816406 C 115.453125 190.640625 115.445312 190.441406 115.402344 190.25 C 115.453125 190.234375 115.507812 190.21875 115.570312 190.210938 Z M 97.4375 180.816406 C 97.519531 180.4375 97.78125 180.34375 98.078125 180.320312 C 98.660156 180.273438 99.242188 180.246094 99.828125 180.222656 C 100.296875 180.199219 100.761719 180.199219 101.230469 180.191406 C 101.574219 180.183594 101.925781 180.152344 102.285156 180.566406 C 101.945312 180.632812 101.710938 180.710938 101.472656 180.726562 C 100.679688 180.78125 99.875 180.804688 99.082031 180.855469 C 98.804688 180.871094 98.53125 180.933594 98.246094 180.980469 C 97.980469 181.015625 97.6875 181.117188 97.4375 180.816406 Z M 122.578125 188.613281 C 121.921875 188.421875 121.421875 188 120.949219 187.558594 C 120.398438 187.039062 119.855469 186.515625 119.320312 185.980469 C 119.152344 185.8125 118.902344 185.613281 119.296875 185.277344 C 120.597656 186.164062 121.667969 187.304688 122.578125 188.613281 Z M 102.445312 188.492188 C 102.566406 187.757812 104.476562 185.746094 105.457031 185.308594 C 105.714844 185.46875 105.632812 185.675781 105.480469 185.835938 C 104.675781 186.664062 103.875 187.488281 103.054688 188.300781 C 102.902344 188.453125 102.710938 188.621094 102.445312 188.492188 Z M 103.070312 196.8125 C 103.140625 196.578125 103.179688 196.332031 103.277344 196.109375 C 103.828125 194.894531 104.394531 193.675781 104.964844 192.460938 C 105.035156 192.316406 105.121094 192.164062 105.242188 192.054688 C 105.324219 191.980469 105.472656 191.980469 105.714844 191.902344 C 104.957031 193.691406 104.261719 195.367188 103.246094 196.875 C 103.183594 196.859375 103.125 196.835938 103.070312 196.8125 Z M 116.148438 166.007812 C 116.132812 165.394531 116.5 164.914062 116.792969 164.425781 C 117.394531 163.414062 117.847656 162.3125 118.601562 161.332031 C 118.855469 161.601562 118.785156 161.808594 118.695312 161.992188 C 118.472656 162.457031 118.25 162.933594 118 163.382812 C 117.570312 164.140625 117.121094 164.890625 116.675781 165.632812 C 116.578125 165.800781 116.433594 165.945312 116.308594 166.109375 C 116.257812 166.070312 116.203125 166.039062 116.148438 166.007812 Z M 122.386719 174.261719 C 122.097656 174.371094 121.851562 174.476562 121.59375 174.546875 C 120.613281 174.804688 119.636719 175.058594 118.648438 175.289062 C 118.382812 175.347656 117.960938 175.59375 117.871094 175.164062 C 117.792969 174.820312 118.25 174.820312 118.503906 174.75 C 119.597656 174.460938 120.699219 174.199219 121.796875 173.925781 C 122.003906 173.871094 122.21875 173.847656 122.386719 174.261719 Z M 118.464844 178.011719 C 119.839844 177.878906 121.210938 178.125 122.578125 178.1875 C 122.675781 178.195312 122.761719 178.355469 122.867188 178.445312 C 122.378906 178.769531 120.367188 178.777344 118.757812 178.46875 C 118.625 178.445312 118.511719 178.308594 118.398438 178.234375 C 118.417969 178.164062 118.441406 178.085938 118.464844 178.011719 Z M 115.765625 166.789062 C 115.882812 167.292969 115.476562 168.316406 114.507812 169.933594 C 114.308594 170.261719 114.191406 170.726562 113.671875 170.789062 C 113.695312 170.085938 115.21875 167.148438 115.765625 166.789062 Z M 108.300781 186.507812 C 108.222656 186.785156 108.199219 187.097656 108.0625 187.34375 C 107.441406 188.421875 107.128906 189.675781 106.304688 190.710938 C 105.984375 190.378906 106.191406 190.136719 106.257812 189.921875 C 106.855469 188.222656 107.65625 186.753906 108.300781 186.507812 Z M 115.980469 173.277344 C 116.148438 173.03125 116.234375 172.878906 116.347656 172.738281 C 117.003906 171.96875 117.671875 171.203125 118.335938 170.4375 C 118.410156 170.34375 118.496094 170.246094 118.59375 170.199219 C 118.6875 170.160156 118.839844 170.160156 118.910156 170.214844 C 118.976562 170.269531 119 170.429688 118.976562 170.519531 C 118.941406 170.652344 118.847656 170.773438 118.75 170.875 C 118.105469 171.570312 117.464844 172.257812 116.820312 172.953125 C 116.632812 173.160156 116.464844 173.398438 115.980469 173.277344 Z M 113.832031 185.554688 C 114.03125 185.84375 114.15625 185.972656 114.222656 186.136719 C 114.574219 187.007812 114.910156 187.878906 115.246094 188.757812 C 115.253906 188.78125 115.269531 188.804688 115.269531 188.828125 C 115.324219 189.027344 115.453125 189.277344 115.15625 189.347656 C 115.042969 189.371094 114.804688 189.195312 114.75 189.066406 C 114.4375 188.308594 114.160156 187.527344 113.878906 186.761719 C 113.808594 186.5625 113.726562 186.363281 113.695312 186.15625 C 113.679688 186.011719 113.757812 185.867188 113.832031 185.554688 Z M 104.820312 163.804688 C 104.132812 162.871094 104.011719 161.824219 103.644531 160.882812 C 103.558594 160.667969 103.4375 160.378906 103.78125 160.125 C 104.339844 161.179688 104.707031 162.289062 105.011719 163.421875 C 105.035156 163.5 104.921875 163.605469 104.820312 163.804688 Z M 110.347656 189.921875 C 110.300781 189.800781 110.203125 189.667969 110.226562 189.554688 C 110.417969 188.558594 110.195312 187.503906 110.59375 186.472656 C 110.945312 186.699219 110.921875 186.992188 110.890625 187.25 C 110.804688 188.148438 111.082031 189.101562 110.546875 189.929688 C 110.476562 189.929688 110.417969 189.929688 110.347656 189.921875 Z M 119.566406 169.480469 C 119.605469 169.296875 119.589844 169.136719 119.65625 169.046875 C 120.0625 168.523438 120.484375 168.027344 120.902344 167.523438 C 120.980469 167.429688 121.070312 167.332031 121.171875 167.300781 C 121.308594 167.261719 121.46875 167.292969 121.621094 167.292969 C 121.605469 167.445312 121.601562 167.597656 121.578125 167.753906 C 121.570312 167.789062 121.523438 167.828125 121.492188 167.867188 C 121.140625 168.273438 120.789062 168.683594 120.421875 169.074219 C 120.230469 169.296875 120.03125 169.550781 119.566406 169.480469 Z M 99.753906 191.121094 C 100.097656 190.183594 100.6875 189.652344 101.335938 189.179688 C 101.433594 189.101562 101.617188 189.148438 101.761719 189.140625 C 101.734375 189.285156 101.75 189.46875 101.664062 189.578125 C 101.167969 190.167969 100.570312 190.65625 99.753906 191.121094 Z M 94.105469 181.15625 C 94.273438 181.0625 94.433594 180.941406 94.609375 180.902344 C 95.082031 180.796875 95.5625 180.710938 96.054688 180.65625 C 96.269531 180.632812 96.503906 180.726562 96.511719 180.992188 C 96.527344 181.277344 96.273438 181.324219 96.070312 181.332031 C 95.441406 181.347656 94.808594 181.339844 94.179688 181.339844 C 94.15625 181.269531 94.136719 181.214844 94.105469 181.15625 Z M 125.902344 178.523438 C 125.191406 178.9375 124.464844 178.796875 123.738281 178.636719 C 123.625 178.613281 123.542969 178.453125 123.480469 178.277344 C 124.328125 178.101562 125.125 178.171875 125.902344 178.523438 Z M 116.601562 183.234375 C 117.410156 183.34375 118.222656 184.039062 118.320312 184.660156 C 117.601562 184.636719 116.828125 184.007812 116.601562 183.234375 Z M 100.28125 175.050781 C 100.953125 175.097656 101.609375 175.28125 102.246094 175.515625 C 102.34375 175.554688 102.390625 175.730469 102.460938 175.847656 C 102.320312 175.898438 102.160156 176.042969 102.0625 176.007812 C 101.449219 175.777344 100.847656 175.507812 100.242188 175.257812 C 100.25 175.1875 100.265625 175.117188 100.28125 175.050781 Z M 104.210938 172.195312 C 103.597656 172.304688 103.300781 171.835938 102.925781 171.507812 C 102.742188 171.347656 102.703125 171.15625 102.878906 170.957031 C 103.605469 171.058594 104.195312 171.578125 104.210938 172.195312 Z M 120.238281 181.742188 C 119.535156 181.773438 119.023438 181.523438 118.527344 181.253906 C 118.464844 181.222656 118.40625 181.070312 118.425781 181.015625 C 118.464844 180.925781 118.574219 180.855469 118.664062 180.808594 C 118.71875 180.78125 118.808594 180.78125 118.871094 180.804688 C 119.375 180.980469 119.820312 181.238281 120.238281 181.742188 Z M 110.269531 192.714844 C 109.882812 191.980469 109.988281 191.015625 110.5 190.671875 C 110.707031 191.207031 110.609375 192.140625 110.269531 192.714844 Z M 103.652344 183.28125 C 103.484375 183.855469 102.726562 184.199219 101.992188 184.039062 C 102.261719 183.566406 103.070312 183.199219 103.652344 183.28125 Z M 110.355469 168.339844 C 110.546875 169.015625 110.410156 169.519531 110.25 170.070312 C 109.820312 169.574219 109.84375 169 110.355469 168.339844 Z M 110.355469 168.339844 " fill-opacity="1" fill-rule="nonzero"/></g><g clip-path="url(#e93b919643)"><g clip-path="url(#5db1a22c1f)"><g clip-path="url(#29eba5e0d6)"><path fill="#ffffff" d="M 81.226562 147.964844 C 74.089844 153.691406 73.546875 155.511719 76.355469 164.21875 C 70.628906 157.082031 68.808594 156.535156 60.101562 159.34375 C 67.238281 153.617188 67.785156 151.800781 64.972656 143.089844 C 70.699219 150.226562 72.519531 150.773438 81.226562 147.964844 Z M 81.226562 147.964844 " fill-opacity="1" fill-rule="nonzero"/></g></g></g><g clip-path="url(#62781e1a85)"><g clip-path="url(#d5f11c2e96)"><g clip-path="url(#3a462b08d3)"><path fill="#ffffff" d="M 283.367188 125.542969 C 283.230469 125.972656 283.128906 126.414062 283.066406 126.859375 C 283 127.308594 282.976562 127.757812 282.988281 128.210938 C 283 128.664062 283.050781 129.109375 283.140625 129.554688 C 283.226562 129.996094 283.351562 130.429688 283.515625 130.851562 C 283.675781 131.273438 283.875 131.679688 284.105469 132.070312 C 284.335938 132.460938 284.597656 132.824219 284.890625 133.171875 C 285.183594 133.515625 285.503906 133.832031 285.851562 134.125 C 286.195312 134.414062 286.566406 134.671875 286.957031 134.902344 C 289.457031 136.328125 292.023438 137.617188 294.660156 138.769531 C 292.042969 137.574219 289.367188 136.523438 286.636719 135.617188 C 286.207031 135.480469 285.765625 135.378906 285.316406 135.316406 C 284.871094 135.25 284.421875 135.226562 283.96875 135.238281 C 283.515625 135.25 283.066406 135.300781 282.625 135.386719 C 282.179688 135.476562 281.746094 135.601562 281.324219 135.761719 C 280.902344 135.925781 280.496094 136.121094 280.105469 136.351562 C 279.71875 136.582031 279.351562 136.84375 279.007812 137.136719 C 278.660156 137.429688 278.34375 137.75 278.054688 138.09375 C 277.761719 138.441406 277.503906 138.808594 277.277344 139.199219 C 275.851562 141.699219 274.5625 144.265625 273.410156 146.898438 C 274.605469 144.28125 275.652344 141.609375 276.558594 138.878906 C 276.695312 138.449219 276.796875 138.011719 276.863281 137.5625 C 276.925781 137.117188 276.953125 136.664062 276.9375 136.214844 C 276.925781 135.761719 276.875 135.3125 276.785156 134.871094 C 276.699219 134.425781 276.574219 133.992188 276.410156 133.570312 C 276.25 133.148438 276.054688 132.742188 275.820312 132.355469 C 275.589844 131.964844 275.328125 131.597656 275.035156 131.253906 C 274.742188 130.910156 274.421875 130.589844 274.078125 130.300781 C 273.730469 130.007812 273.359375 129.75 272.96875 129.523438 C 270.472656 128.09375 267.902344 126.804688 265.265625 125.65625 C 267.882812 126.847656 270.558594 127.898438 273.289062 128.804688 C 273.71875 128.945312 274.160156 129.046875 274.609375 129.109375 C 275.054688 129.171875 275.507812 129.199219 275.957031 129.1875 C 276.410156 129.175781 276.859375 129.125 277.300781 129.035156 C 277.746094 128.949219 278.179688 128.824219 278.601562 128.660156 C 279.023438 128.5 279.429688 128.304688 279.820312 128.074219 C 280.207031 127.84375 280.574219 127.582031 280.921875 127.289062 C 281.265625 126.996094 281.582031 126.675781 281.871094 126.328125 C 282.164062 125.984375 282.421875 125.613281 282.652344 125.222656 C 284.078125 122.726562 285.363281 120.160156 286.515625 117.523438 C 285.320312 120.140625 284.273438 122.8125 283.367188 125.542969 Z M 283.367188 125.542969 " fill-opacity="1" fill-rule="nonzero"/></g></g></g><g clip-path="url(#c7384e0c1a)"><g clip-path="url(#e1af175d4a)"><g clip-path="url(#043a171e78)"><path fill="#ffffff" d="M 303.542969 119.449219 C 303.371094 119.976562 303.296875 120.519531 303.3125 121.078125 C 303.324219 121.632812 303.433594 122.171875 303.632812 122.691406 C 303.832031 123.210938 304.113281 123.679688 304.472656 124.105469 C 304.832031 124.527344 305.253906 124.882812 305.734375 125.160156 C 307.257812 126.035156 308.828125 126.820312 310.4375 127.523438 C 308.839844 126.792969 307.207031 126.152344 305.539062 125.597656 C 305.007812 125.429688 304.464844 125.351562 303.910156 125.367188 C 303.351562 125.382812 302.816406 125.488281 302.296875 125.6875 C 301.777344 125.886719 301.304688 126.164062 300.878906 126.527344 C 300.457031 126.886719 300.105469 127.304688 299.824219 127.785156 C 298.953125 129.3125 298.164062 130.878906 297.464844 132.488281 C 298.191406 130.890625 298.832031 129.257812 299.382812 127.589844 C 299.554688 127.0625 299.632812 126.519531 299.617188 125.960938 C 299.601562 125.40625 299.492188 124.867188 299.292969 124.347656 C 299.09375 123.828125 298.816406 123.359375 298.457031 122.933594 C 298.09375 122.511719 297.675781 122.15625 297.195312 121.878906 C 295.667969 121.007812 294.101562 120.21875 292.488281 119.515625 C 294.089844 120.246094 295.722656 120.886719 297.390625 121.441406 C 297.917969 121.609375 298.460938 121.6875 299.019531 121.671875 C 299.574219 121.65625 300.113281 121.550781 300.632812 121.351562 C 301.152344 121.152344 301.625 120.875 302.046875 120.511719 C 302.472656 120.152344 302.824219 119.734375 303.105469 119.253906 C 303.976562 117.726562 304.761719 116.160156 305.464844 114.550781 C 304.734375 116.148438 304.09375 117.78125 303.542969 119.449219 Z M 303.542969 119.449219 " fill-opacity="1" fill-rule="nonzero"/></g></g></g><g clip-path="url(#cc5fd9aa98)"><g clip-path="url(#c7b839687a)"><path fill="#ffffff" d="M 90.65625 129.441406 L 99.617188 129.441406 L 99.617188 138.402344 L 90.65625 138.402344 Z M 90.65625 129.441406 " fill-opacity="1" fill-rule="nonzero"/></g></g><g clip-path="url(#683b56997d)"><g clip-path="url(#2ce106ee70)"><path fill="#ffffff" d="M 125.621094 212.644531 L 132.539062 212.644531 L 132.539062 219.5625 L 125.621094 219.5625 Z M 125.621094 212.644531 " fill-opacity="1" fill-rule="nonzero"/></g></g><g clip-path="url(#ef449bb28a)"><g clip-path="url(#937ef4ac1e)"><path fill="#ffffff" d="M 297.347656 142.171875 L 306.308594 142.171875 L 306.308594 151.132812 L 297.347656 151.132812 Z M 297.347656 142.171875 " fill-opacity="1" fill-rule="nonzero"/></g></g><g clip-path="url(#ec3affa501)"><g clip-path="url(#2ca82d9a09)"><path fill="#ffffff" d="M 152.007812 281.140625 L 160.96875 281.140625 L 160.96875 290.101562 L 152.007812 290.101562 Z M 152.007812 281.140625 " fill-opacity="1" fill-rule="nonzero"/></g></g><g clip-path="url(#336c6c3c2f)"><g clip-path="url(#962a10717f)"><g clip-path="url(#7cf645f94a)"><path fill="#ffffff" d="M 180.359375 312.097656 C 172.027344 317.109375 171.195312 318.945312 172.910156 328.515625 C 167.898438 320.183594 166.0625 319.351562 156.492188 321.066406 C 164.824219 316.054688 165.65625 314.21875 163.945312 304.648438 C 168.953125 312.980469 170.789062 313.8125 180.359375 312.097656 Z M 180.359375 312.097656 " fill-opacity="1" fill-rule="nonzero"/></g></g></g><g clip-path="url(#ae0b587524)"><g clip-path="url(#7f00c92890)"><g clip-path="url(#21a7b709f8)"><path fill="#ffffff" d="M 231.496094 305.597656 C 222.175781 304.132812 220.410156 304.980469 215.71875 313.167969 C 217.183594 303.847656 216.335938 302.082031 208.148438 297.394531 C 217.46875 298.859375 219.234375 298.011719 223.921875 289.820312 C 222.460938 299.140625 223.308594 300.910156 231.496094 305.597656 Z M 231.496094 305.597656 " fill-opacity="1" fill-rule="nonzero"/></g></g></g><g clip-path="url(#846e684987)"><g clip-path="url(#0f7867a77c)"><g clip-path="url(#f37725ac2d)"><path fill="#ffffff" d="M 307 123.105469 C 306.742188 123.707031 306.589844 124.335938 306.542969 124.988281 C 306.496094 125.640625 306.5625 126.28125 306.734375 126.914062 C 306.90625 127.542969 307.179688 128.125 307.550781 128.660156 C 307.921875 129.195312 308.375 129.652344 308.902344 130.035156 C 310.582031 131.21875 312.320312 132.308594 314.121094 133.304688 C 312.339844 132.277344 310.507812 131.351562 308.625 130.527344 C 308.027344 130.269531 307.402344 130.121094 306.75 130.078125 C 306.101562 130.035156 305.460938 130.105469 304.832031 130.28125 C 304.203125 130.457031 303.621094 130.734375 303.085938 131.113281 C 302.550781 131.488281 302.089844 131.941406 301.707031 132.472656 C 300.519531 134.167969 299.421875 135.917969 298.421875 137.726562 C 299.453125 135.933594 300.386719 134.089844 301.21875 132.199219 C 301.480469 131.597656 301.632812 130.96875 301.675781 130.316406 C 301.722656 129.664062 301.660156 129.019531 301.484375 128.390625 C 301.3125 127.761719 301.039062 127.179688 300.667969 126.644531 C 300.296875 126.109375 299.847656 125.648438 299.316406 125.269531 C 297.636719 124.085938 295.898438 122.996094 294.097656 122 C 295.882812 123.023438 297.710938 123.953125 299.59375 124.777344 C 300.195312 125.035156 300.816406 125.183594 301.46875 125.226562 C 302.121094 125.269531 302.757812 125.199219 303.386719 125.023438 C 304.015625 124.847656 304.597656 124.570312 305.132812 124.191406 C 305.671875 123.816406 306.128906 123.363281 306.511719 122.828125 C 307.699219 121.136719 308.796875 119.386719 309.800781 117.578125 C 308.765625 119.371094 307.835938 121.210938 307 123.105469 Z M 307 123.105469 " fill-opacity="1" fill-rule="nonzero"/></g></g></g><g clip-path="url(#34086e84ea)"><g clip-path="url(#0ef8211769)"><g clip-path="url(#768ef1b87d)"><path fill="#ffffff" d="M 321.792969 120.066406 C 321.632812 120.4375 321.539062 120.820312 321.511719 121.21875 C 321.484375 121.617188 321.523438 122.007812 321.628906 122.394531 C 321.734375 122.777344 321.902344 123.132812 322.128906 123.460938 C 322.355469 123.785156 322.628906 124.066406 322.953125 124.296875 C 323.980469 125.023438 325.042969 125.6875 326.140625 126.296875 C 325.050781 125.667969 323.933594 125.105469 322.785156 124.597656 C 322.417969 124.441406 322.039062 124.351562 321.640625 124.324219 C 321.242188 124.300781 320.851562 124.339844 320.46875 124.449219 C 320.085938 124.558594 319.730469 124.726562 319.402344 124.957031 C 319.074219 125.1875 318.792969 125.464844 318.5625 125.789062 C 317.835938 126.820312 317.164062 127.890625 316.554688 128.996094 C 317.183594 127.902344 317.753906 126.777344 318.261719 125.621094 C 318.421875 125.253906 318.511719 124.867188 318.542969 124.46875 C 318.570312 124.070312 318.53125 123.679688 318.425781 123.296875 C 318.320312 122.910156 318.152344 122.554688 317.925781 122.226562 C 317.699219 121.902344 317.425781 121.621094 317.101562 121.390625 C 316.074219 120.667969 315.011719 120 313.914062 119.394531 C 315.003906 120.019531 316.121094 120.585938 317.269531 121.089844 C 317.636719 121.246094 318.015625 121.335938 318.414062 121.363281 C 318.8125 121.386719 319.203125 121.347656 319.585938 121.238281 C 319.96875 121.128906 320.324219 120.960938 320.652344 120.730469 C 320.980469 120.503906 321.261719 120.226562 321.492188 119.898438 C 322.21875 118.867188 322.890625 117.796875 323.5 116.691406 C 322.871094 117.785156 322.300781 118.914062 321.792969 120.066406 Z M 321.792969 120.066406 " fill-opacity="1" fill-rule="nonzero"/></g></g></g><g clip-path="url(#96d48339b4)"><g clip-path="url(#466c6412ac)"><g clip-path="url(#74987bbded)"><g clip-path="url(#3ea7886fad)"><path fill="#ffffff" d="M 259.476562 166.320312 C 260.203125 167.117188 260.65625 167.996094 261.25 168.773438 C 261.917969 169.652344 262.746094 170.339844 263.65625 170.929688 C 264.84375 171.699219 266.210938 172.058594 267.554688 172.410156 C 269.054688 172.804688 270.59375 173.023438 272.152344 172.96875 C 273.140625 172.929688 274.152344 172.886719 275.082031 172.554688 C 276.078125 172.191406 276.964844 171.578125 277.871094 171.015625 C 279.449219 170.039062 280.402344 168.585938 281.214844 166.992188 C 281.953125 165.554688 282.453125 164.042969 282.816406 162.476562 C 283.222656 160.734375 283.195312 158.992188 282.878906 157.25 C 282.800781 156.804688 282.703125 156.363281 282.609375 155.925781 C 282.566406 155.703125 282.636719 155.5 282.835938 155.398438 C 282.992188 155.316406 283.160156 155.34375 283.308594 155.503906 C 284.382812 156.648438 285.542969 157.714844 286.457031 159 C 287.9375 161.074219 288.941406 163.34375 289.175781 165.917969 C 289.320312 167.496094 289.246094 169.050781 288.960938 170.601562 C 288.84375 171.246094 288.464844 171.808594 288.230469 172.417969 C 287.519531 174.242188 286.304688 175.703125 285.019531 177.140625 C 283.289062 179.085938 281.113281 180.242188 278.644531 180.921875 C 276.957031 181.390625 275.234375 181.398438 273.507812 181.308594 C 270.441406 181.144531 267.753906 179.929688 265.320312 178.160156 C 263.285156 176.683594 261.667969 174.785156 260.609375 172.472656 C 259.914062 170.929688 259.496094 169.300781 259.445312 167.578125 C 259.433594 167.175781 259.328125 166.78125 259.476562 166.320312 Z M 259.476562 166.320312 " fill-opacity="1" fill-rule="nonzero"/></g></g></g></g></svg>